<svg width="420.79999999999995" height="420.79999999999995" xmlns="http://www.w3.org/2000/svg">

 <g>
  <title>background</title>
  <rect fill="none" id="canvas_background" height="402" width="582" y="-1" x="-1"/>
 </g>
 <g>
  <title>Layer 1</title>
  <path fill="#00e826" id="svg_4" d="m406.8,94.793934c-8.4,-8.8 -20,-14 -33.2,-14l-66.4,0l0,-0.8c0,-10 -4,-19.6 -10.8,-26c-6.8,-6.8 -16,-10.8 -26,-10.8l-120,0c-10.4,0 -19.6,4 -26.4,10.8c-6.8,6.8 -10.8,16 -10.8,26l0,0.8l-66,0c-13.2,0 -24.8,5.2 -33.2,14c-8.4,8.4 -14,20.4 -14,33.2l0,199.2c0,13.2 5.2,24.8 14,33.2c8.4,8.4 20.4,14 33.2,14l326.4,0c13.2,0 24.8,-5.2 33.2,-14c8.4,-8.4 14,-20.4 14,-33.2l0,-199.2c0,-13.2 -5.2,-24.8 -14,-33.2zm-6.8,232.4l-0.4,0c0,7.2 -2.8,13.6 -7.6,18.4s-11.2,7.6 -18.4,7.6l-326.4,0c-7.2,0 -13.6,-2.8 -18.4,-7.6c-4.8,-4.8 -7.6,-11.2 -7.6,-18.4l0,-199.2c0,-7.2 2.8,-13.6 7.6,-18.4s11.2,-7.6 18.4,-7.6l77.2,0c6,0 10.8,-4.8 10.8,-10.8l0,-11.6c0,-4.4 1.6,-8.4 4.4,-11.2s6.8,-4.4 11.2,-4.4l119.6,0c4.4,0 8.4,1.6 11.2,4.4c2.8,2.8 4.4,6.8 4.4,11.2l0,11.6c0,6 4.8,10.8 10.8,10.8l77.2,0c7.2,0 13.6,2.8 18.4,7.6s7.6,11.2 7.6,18.4l0,199.2z"/>
  <path fill="#06e506" id="svg_5" d="m210.4,130.8c-27.2,0 -52,11.2 -69.6,28.8c-18,18 -28.8,42.4 -28.8,69.6s11.2,52 28.8,69.6c18,18 42.4,28.8 69.6,28.8s52,-11.2 69.6,-28.8c18,-18 28.8,-42.4 28.8,-69.6s-11.2,-52 -28.8,-69.6c-17.6,-17.6 -42.4,-28.8 -69.6,-28.8zm54.4,153.2c-14,13.6 -33.2,22.4 -54.4,22.4s-40.4,-8.8 -54.4,-22.4c-14,-14 -22.4,-33.2 -22.4,-54.4c0,-21.2 8.8,-40.4 22.4,-54.4c14,-14 33.2,-22.4 54.4,-22.4s40.4,8.8 54.4,22.4c14,14 22.4,33.2 22.4,54.4c0.4,21.2 -8.4,40.4 -22.4,54.4z"/>
  <circle fill="#00e826" id="svg_6" r="19.6" cy="150" cx="352.8"/>
  <path d="m27.898909,95.836823c0,3.000015 -1.147738,5.943443 -3.000017,11.000061c-2.175392,5.938698 -3.000019,9.000053 -4.000025,14.000084l-2.000011,2.000015l0,1.000008l0,1" id="svg_22" fill-opacity="null" stroke-opacity="null" stroke-width="null" stroke="null" fill="none"/>
  <polyline stroke-linecap="round" id="svg_23" points="72.89917619745972,152.83715920737802 72.89917619745972,152.83715920737802 " fill-opacity="null" stroke-opacity="null" stroke-width="null" stroke="null" fill="none"/>
 </g>
</svg>
