<svg width="583" height="402" xmlns="http://www.w3.org/2000/svg">
 <defs>
  <filter id="svg_1_blur">
   <feGaussianBlur stdDeviation="0.9" in="SourceGraphic"/>
  </filter>
 </defs>
 <g>
  <title>background</title>
  <rect fill="none" id="canvas_background" height="404" width="585" y="-1" x="-1"/>
 </g>
 <g>
  <title>Layer 1</title>
  <path fill="#ff00ff" stroke="null" filter="url(#svg_1_blur)" opacity="0.99" id="svg_1" d="m523.741508,82.279289c-3.039062,-1.800782 -6.796874,-1.871094 -9.898437,-0.179688l-108.296875,59.132813l0,-35.480469c-0.03125,-27.601562 -22.398438,-49.96875 -50,-50l-248.90625,0c-27.601562,0.03125 -49.96875,22.398438 -50,50l0,197.421875c0.03125,27.601563 22.398438,49.96875 50,50l248.90625,0c27.601562,-0.03125 49.96875,-22.398437 50,-50l0,-34.835937l108.300781,59.132812c3.097657,1.691406 6.859375,1.625 9.894531,-0.175781c3.039063,-1.804688 4.898438,-5.074219 4.898438,-8.601563l0,-227.816406c0,-3.53125 -1.863281,-6.796875 -4.898438,-8.597656zm-138.203124,220.898437c-0.015626,16.5625 -13.4375,29.980469 -30,30l-248.898438,0c-16.5625,-0.019531 -29.980469,-13.4375 -30,-30l0,-197.425781c0.019531,-16.558594 13.4375,-29.980469 30,-30l248.90625,0c16.558594,0.019531 29.980469,13.441406 30,30l-0.007812,197.425781zm123.101562,-1.335937l-103.09375,-56.289063l0,-81.535156l103.09375,-56.285156l0,194.109375zm0,0"/>
 </g>
</svg>
