<svg id="svg" version="1.1" xmlns="http://www.w3.org/2000/svg" xmlns:xlink="http://www.w3.org/1999/xlink" width="400" height="356.95732838589987" viewBox="0, 0, 400,356.95732838589987"><g id="svgg"><path id="path0" d="M196.429 0.714 C 196.429 0.924,195.179 1.071,193.393 1.071 C 190.595 1.071,190.357 1.127,190.357 1.786 C 190.357 2.262,190.119 2.500,189.643 2.500 C 189.065 2.500,188.929 2.738,188.929 3.750 C 188.929 4.901,188.844 5.000,187.857 5.000 C 187.024 5.000,186.786 5.159,186.786 5.714 C 186.786 6.238,186.548 6.429,185.893 6.429 C 185.139 6.429,185.000 6.595,185.000 7.500 C 185.000 8.452,184.881 8.571,183.929 8.571 C 183.095 8.571,182.857 8.730,182.857 9.286 C 182.857 9.762,182.619 10.000,182.143 10.000 C 181.526 10.000,181.429 10.238,181.429 11.741 C 181.429 13.390,181.372 13.493,180.357 13.696 C 179.590 13.850,179.286 14.116,179.286 14.634 C 179.286 15.119,179.051 15.357,178.571 15.357 C 177.952 15.357,177.857 15.595,177.857 17.143 C 177.857 18.690,177.762 18.929,177.143 18.929 C 176.591 18.929,176.429 19.167,176.429 19.977 C 176.429 20.900,176.288 21.040,175.268 21.138 C 174.136 21.247,174.104 21.297,173.999 23.125 C 173.908 24.708,173.783 25.000,173.196 25.000 C 172.738 25.000,172.500 25.244,172.500 25.714 C 172.500 26.270,172.262 26.429,171.429 26.429 C 170.381 26.429,170.357 26.468,170.357 28.214 C 170.357 29.762,170.262 30.000,169.643 30.000 C 169.091 30.000,168.929 30.238,168.929 31.048 C 168.929 31.925,168.769 32.114,167.946 32.208 C 167.030 32.314,166.957 32.448,166.856 34.196 C 166.757 35.918,166.677 36.071,165.874 36.071 C 165.238 36.071,165.000 36.266,165.000 36.786 C 165.000 37.341,164.762 37.500,163.929 37.500 C 163.095 37.500,162.857 37.659,162.857 38.214 C 162.857 38.923,162.619 38.929,132.857 38.929 L 102.857 38.929 102.857 33.107 C 102.857 27.091,102.708 26.429,101.357 26.429 C 100.847 26.429,100.714 26.139,100.714 25.026 C 100.714 23.732,100.025 22.500,99.302 22.500 C 99.142 22.500,98.928 22.179,98.825 21.786 C 98.672 21.202,98.338 21.071,96.998 21.071 C 95.631 21.071,95.357 20.960,95.357 20.401 C 95.357 18.923,95.302 18.920,71.210 19.015 L 48.036 19.107 47.923 20.089 C 47.843 20.783,47.607 21.071,47.119 21.071 C 46.682 21.071,46.429 21.317,46.429 21.741 C 46.429 22.199,46.090 22.478,45.357 22.625 C 44.450 22.806,44.286 23.005,44.286 23.920 C 44.286 24.778,44.132 25.000,43.538 25.000 C 43.091 25.000,42.715 25.287,42.603 25.714 C 42.486 26.165,42.116 26.429,41.604 26.429 C 40.444 26.429,40.357 26.905,40.357 33.243 L 40.357 38.929 36.584 38.929 C 32.563 38.929,31.429 39.246,31.429 40.370 C 31.429 41.000,31.176 41.071,28.929 41.071 C 26.514 41.071,26.429 41.101,26.429 41.946 C 26.429 42.748,26.275 42.829,24.554 42.928 C 22.805 43.028,22.671 43.102,22.566 44.018 C 22.459 44.941,22.347 45.000,20.691 45.000 C 19.167 45.000,18.929 45.097,18.929 45.714 C 18.929 46.270,18.690 46.429,17.857 46.429 C 16.905 46.429,16.786 46.548,16.786 47.500 C 16.786 48.333,16.627 48.571,16.071 48.571 C 15.611 48.571,15.357 48.810,15.357 49.241 C 15.357 49.700,15.018 49.978,14.278 50.126 C 13.435 50.295,13.152 50.578,12.984 51.421 C 12.836 52.161,12.558 52.500,12.098 52.500 C 11.667 52.500,11.429 52.754,11.429 53.214 C 11.429 53.690,11.190 53.929,10.714 53.929 C 10.159 53.929,10.000 54.167,10.000 55.000 C 10.000 55.952,9.881 56.071,8.929 56.071 C 7.881 56.071,7.857 56.111,7.857 57.857 C 7.857 59.405,7.762 59.643,7.143 59.643 C 6.534 59.643,6.429 59.881,6.429 61.250 C 6.429 62.784,6.382 62.857,5.395 62.857 C 4.248 62.857,3.929 63.360,3.929 65.166 C 3.929 66.045,3.747 66.393,3.214 66.532 C 2.546 66.707,2.500 67.019,2.500 71.395 L 2.500 76.071 1.429 76.071 L 0.357 76.071 0.357 198.929 L 0.357 321.786 1.429 321.786 L 2.500 321.786 2.500 326.607 C 2.500 331.190,2.535 331.429,3.214 331.429 C 3.781 331.429,3.930 331.668,3.933 332.589 C 3.942 334.728,4.276 335.357,5.399 335.357 C 6.396 335.357,6.429 335.413,6.429 337.143 C 6.429 338.674,6.528 338.929,7.123 338.929 C 7.699 338.929,7.837 339.220,7.927 340.625 C 8.027 342.179,8.118 342.331,9.018 342.434 C 9.789 342.523,10.000 342.734,10.000 343.417 C 10.000 344.048,10.196 344.286,10.714 344.286 C 11.190 344.286,11.429 344.524,11.429 345.000 C 11.429 345.466,11.667 345.714,12.114 345.714 C 12.586 345.714,12.874 346.049,13.036 346.786 C 13.232 347.678,13.446 347.857,14.314 347.857 C 15.119 347.857,15.357 348.020,15.357 348.571 C 15.357 349.048,15.595 349.286,16.071 349.286 C 16.627 349.286,16.786 349.524,16.786 350.357 C 16.786 351.403,16.828 351.429,18.547 351.429 C 20.101 351.429,20.321 351.523,20.422 352.232 C 20.521 352.932,20.777 353.050,22.411 353.144 C 24.224 353.248,24.286 353.286,24.286 354.304 C 24.286 355.330,24.332 355.357,26.071 355.357 C 27.568 355.357,27.857 355.464,27.857 356.016 C 27.857 357.115,31.691 357.140,200.357 357.140 C 369.023 357.140,372.857 357.115,372.857 356.016 C 372.857 355.463,373.146 355.357,374.652 355.357 C 376.353 355.357,376.457 355.302,376.657 354.304 C 376.850 353.340,377.009 353.241,378.523 353.143 C 379.929 353.052,380.196 352.914,380.293 352.232 C 380.393 351.523,380.614 351.429,382.168 351.429 C 383.886 351.429,383.929 351.403,383.929 350.357 C 383.929 349.524,384.087 349.286,384.643 349.286 C 385.119 349.286,385.357 349.048,385.357 348.571 C 385.357 348.015,385.595 347.857,386.438 347.857 C 387.352 347.857,387.551 347.693,387.732 346.786 C 387.879 346.052,388.158 345.714,388.616 345.714 C 389.048 345.714,389.286 345.460,389.286 345.000 C 389.286 344.524,389.524 344.286,390.000 344.286 C 390.628 344.286,390.714 344.048,390.714 342.321 C 390.714 340.377,390.725 340.357,391.786 340.357 C 392.619 340.357,392.857 340.198,392.857 339.643 C 392.857 339.167,393.095 338.929,393.571 338.929 C 394.190 338.929,394.286 338.690,394.286 337.143 C 394.286 335.412,394.317 335.357,395.319 335.357 C 396.498 335.357,396.786 334.861,396.786 332.828 C 396.786 331.667,396.907 331.429,397.500 331.429 C 398.179 331.429,398.214 331.190,398.214 326.607 L 398.214 321.786 399.107 321.786 L 400.000 321.786 400.000 198.929 L 400.000 76.071 399.107 76.071 L 398.214 76.071 398.214 71.395 C 398.214 67.019,398.168 66.707,397.500 66.532 C 396.968 66.393,396.786 66.045,396.786 65.166 C 396.786 63.360,396.466 62.857,395.319 62.857 C 394.332 62.857,394.286 62.784,394.286 61.250 C 394.286 59.881,394.180 59.643,393.571 59.643 C 392.952 59.643,392.857 59.405,392.857 57.857 C 392.857 56.111,392.833 56.071,391.786 56.071 C 390.833 56.071,390.714 55.952,390.714 55.000 C 390.714 54.167,390.556 53.929,390.000 53.929 C 389.524 53.929,389.286 53.690,389.286 53.214 C 389.286 52.766,389.048 52.500,388.645 52.500 C 388.231 52.500,387.884 52.090,387.663 51.339 C 387.399 50.443,387.097 50.153,386.339 50.066 C 385.645 49.986,385.357 49.750,385.357 49.262 C 385.357 48.810,385.111 48.571,384.643 48.571 C 384.087 48.571,383.929 48.333,383.929 47.500 C 383.929 46.548,383.810 46.429,382.857 46.429 C 382.024 46.429,381.786 46.270,381.786 45.714 C 381.786 45.095,381.548 45.000,380.000 45.000 C 378.254 45.000,378.214 44.976,378.214 43.929 C 378.214 42.868,378.194 42.857,376.250 42.857 C 374.393 42.857,374.286 42.808,374.286 41.964 C 374.286 41.097,374.214 41.071,371.786 41.071 C 369.539 41.071,369.286 41.000,369.286 40.370 C 369.286 38.997,368.416 38.929,351.095 38.929 C 334.524 38.929,334.286 38.918,334.286 38.214 C 334.286 37.738,334.048 37.500,333.571 37.500 C 333.095 37.500,332.857 37.262,332.857 36.786 C 332.857 36.230,332.619 36.071,331.786 36.071 C 330.735 36.071,330.714 36.035,330.714 34.252 C 330.714 32.768,330.590 32.401,330.038 32.256 C 329.645 32.153,329.276 31.646,329.154 31.040 C 328.980 30.166,328.773 30.000,327.866 30.000 C 326.808 30.000,326.786 29.964,326.786 28.214 C 326.786 26.667,326.690 26.429,326.071 26.429 C 325.595 26.429,325.357 26.190,325.357 25.714 C 325.357 25.159,325.119 25.000,324.286 25.000 C 323.225 25.000,323.214 24.980,323.214 23.036 C 323.214 21.332,323.123 21.071,322.524 21.071 C 322.036 21.071,321.800 20.783,321.720 20.089 C 321.631 19.318,321.396 19.083,320.625 18.994 C 319.771 18.896,319.643 18.724,319.643 17.684 C 319.643 16.024,319.325 15.357,318.533 15.357 C 318.050 15.357,317.857 15.102,317.857 14.464 C 317.857 13.818,317.665 13.571,317.162 13.571 C 316.587 13.571,316.449 13.280,316.359 11.875 C 316.259 10.321,316.167 10.169,315.268 10.066 C 314.574 9.986,314.286 9.750,314.286 9.262 C 314.286 8.810,314.039 8.571,313.571 8.571 C 312.952 8.571,312.857 8.333,312.857 6.786 L 312.857 5.000 310.893 5.000 L 308.929 5.000 308.929 3.750 C 308.929 2.599,308.844 2.500,307.857 2.500 C 307.024 2.500,306.786 2.341,306.786 1.786 C 306.786 1.139,306.548 1.071,304.286 1.071 C 302.857 1.071,301.786 0.918,301.786 0.714 C 301.786 0.478,283.988 0.357,249.107 0.357 C 214.226 0.357,196.429 0.478,196.429 0.714 M94.286 21.071 C 94.286 22.119,94.325 22.143,96.071 22.143 C 97.646 22.143,97.857 22.231,97.857 22.891 C 97.857 23.338,98.144 23.713,98.571 23.825 C 99.056 23.952,99.287 24.315,99.291 24.952 C 99.301 26.871,99.664 27.500,100.764 27.500 L 101.802 27.500 101.705 33.839 L 101.607 40.179 72.439 40.270 C 53.821 40.328,42.935 40.233,42.341 40.008 L 41.411 39.654 41.509 33.666 L 41.607 27.679 42.589 27.566 C 43.143 27.502,43.571 27.233,43.571 26.949 C 43.571 26.672,43.973 26.182,44.464 25.860 C 44.955 25.538,45.357 24.972,45.357 24.602 C 45.357 24.169,45.610 23.929,46.063 23.929 C 46.452 23.929,47.033 23.527,47.354 23.036 C 47.676 22.545,48.162 22.143,48.434 22.143 C 48.714 22.143,48.929 21.781,48.929 21.310 C 48.929 20.851,49.036 20.369,49.167 20.238 C 49.298 20.107,59.503 20.000,71.845 20.000 L 94.286 20.000 94.286 21.071 M76.339 60.231 C 77.479 60.368,78.214 60.631,78.214 60.902 C 78.214 61.168,79.156 61.525,80.546 61.788 C 82.091 62.079,82.992 62.442,83.217 62.862 C 83.404 63.211,84.042 63.666,84.635 63.872 C 85.229 64.079,85.714 64.498,85.714 64.803 C 85.714 65.108,85.915 65.357,86.161 65.357 C 86.688 65.358,89.286 67.955,89.286 68.482 C 89.286 68.682,89.607 68.929,90.000 69.032 C 90.555 69.177,90.714 69.519,90.714 70.566 C 90.714 71.307,90.903 72.435,91.133 73.072 C 91.727 74.714,90.859 80.386,89.979 80.616 C 89.607 80.714,89.254 81.347,89.062 82.262 C 88.814 83.443,88.575 83.775,87.905 83.870 C 87.440 83.935,86.986 84.272,86.896 84.617 C 86.806 84.962,86.168 85.466,85.479 85.736 C 84.791 86.007,84.082 86.499,83.905 86.830 C 83.703 87.207,82.915 87.523,81.792 87.678 C 80.639 87.836,80.000 88.098,80.000 88.410 C 80.000 89.190,77.736 89.465,71.429 89.453 C 65.188 89.441,63.571 89.227,63.571 88.412 C 63.571 88.070,62.943 87.830,61.607 87.663 C 60.271 87.496,59.643 87.257,59.643 86.914 C 59.643 86.637,59.226 86.252,58.715 86.058 C 58.205 85.864,57.713 85.417,57.621 85.065 C 57.528 84.713,56.981 84.247,56.405 84.029 C 55.829 83.811,55.357 83.378,55.357 83.067 C 55.357 82.755,55.129 82.500,54.850 82.500 C 54.571 82.500,54.240 82.034,54.115 81.465 C 53.990 80.896,53.596 80.354,53.240 80.260 C 52.399 80.040,51.951 75.109,52.488 71.964 C 52.689 70.786,52.854 69.720,52.855 69.595 C 52.856 69.471,53.179 69.285,53.571 69.182 C 53.989 69.073,54.286 68.695,54.286 68.272 C 54.286 67.874,54.590 67.452,54.961 67.334 C 55.333 67.216,55.719 66.805,55.820 66.421 C 55.920 66.037,56.420 65.564,56.930 65.370 C 57.440 65.176,57.857 64.793,57.857 64.518 C 57.857 64.243,58.318 63.926,58.882 63.813 C 59.480 63.693,59.982 63.323,60.086 62.925 C 60.222 62.402,60.823 62.136,62.632 61.794 C 64.148 61.509,65.000 61.176,65.000 60.870 C 65.000 60.195,72.515 59.772,76.339 60.231 M261.631 109.676 C 262.796 109.890,263.879 110.292,264.036 110.568 C 264.229 110.908,264.981 111.072,266.357 111.073 C 269.255 111.076,272.422 111.657,273.069 112.304 C 273.374 112.608,274.214 112.858,274.936 112.859 C 276.803 112.862,278.929 113.519,278.929 114.093 C 278.929 114.392,279.514 114.668,280.446 114.809 C 283.339 115.246,283.870 115.403,284.052 115.878 C 284.153 116.140,285.035 116.465,286.012 116.599 C 287.339 116.782,287.834 117.016,287.968 117.527 C 288.162 118.271,288.433 118.404,290.446 118.738 C 291.269 118.875,291.786 119.159,291.786 119.474 C 291.786 119.756,292.228 120.081,292.768 120.196 C 294.300 120.524,295.357 121.022,295.357 121.416 C 295.357 121.614,295.920 122.011,296.607 122.298 C 297.295 122.586,297.857 123.070,297.857 123.375 C 297.857 123.772,298.219 123.929,299.141 123.929 C 300.110 123.929,300.468 124.098,300.605 124.620 C 300.704 125.001,301.252 125.475,301.821 125.673 C 302.511 125.913,302.857 126.280,302.857 126.767 C 302.857 127.308,303.088 127.500,303.738 127.500 C 304.222 127.500,305.167 127.982,305.838 128.571 C 306.509 129.161,307.235 129.643,307.451 129.643 C 307.667 129.643,307.944 130.045,308.068 130.536 C 308.225 131.162,308.535 131.429,309.107 131.429 C 309.679 131.429,309.989 131.695,310.147 132.321 C 310.288 132.884,310.623 133.214,311.053 133.214 C 311.489 133.214,311.777 133.505,311.850 134.018 C 311.924 134.541,312.252 134.862,312.787 134.938 C 313.264 135.006,313.748 135.419,313.939 135.920 C 314.120 136.396,314.497 136.786,314.778 136.786 C 315.058 136.786,315.455 137.268,315.661 137.857 C 315.866 138.446,316.288 138.929,316.597 138.929 C 316.907 138.929,317.313 139.330,317.500 139.821 C 317.687 140.313,318.089 140.714,318.393 140.714 C 318.722 140.714,319.033 141.148,319.161 141.786 C 319.279 142.375,319.596 142.857,319.866 142.857 C 320.136 142.857,320.357 143.081,320.357 143.355 C 320.357 143.628,320.598 143.945,320.893 144.058 C 321.188 144.171,321.429 144.504,321.429 144.798 C 321.429 145.092,321.750 145.504,322.143 145.714 C 322.536 145.925,322.857 146.427,322.857 146.832 C 322.857 147.261,323.148 147.643,323.556 147.750 C 323.955 147.854,324.430 148.461,324.661 149.163 C 324.884 149.839,325.454 150.810,325.926 151.320 C 326.399 151.830,326.786 152.545,326.786 152.909 C 326.786 153.273,327.027 153.571,327.321 153.571 C 327.616 153.571,327.857 153.883,327.857 154.265 C 327.857 154.646,328.018 155.057,328.214 155.179 C 328.411 155.300,328.571 155.692,328.571 156.049 C 328.571 156.406,328.903 156.919,329.308 157.189 C 329.783 157.504,330.117 158.218,330.248 159.196 C 330.371 160.114,330.638 160.714,330.923 160.714 C 331.318 160.714,332.134 162.701,332.141 163.680 C 332.142 163.837,332.545 164.558,333.036 165.280 C 333.594 166.101,333.929 167.094,333.929 167.926 C 333.929 168.805,334.175 169.488,334.654 169.934 C 335.188 170.431,335.460 171.323,335.681 173.295 C 335.883 175.093,336.231 176.319,336.734 177.008 C 337.348 177.846,337.531 178.776,337.726 182.054 C 337.891 184.834,338.098 186.071,338.398 186.071 C 339.096 186.071,339.286 188.781,339.283 198.711 C 339.279 209.081,339.085 211.786,338.343 211.786 C 338.003 211.786,337.854 212.295,337.845 213.482 C 337.822 216.895,337.231 220.038,336.459 220.860 C 335.887 221.469,335.714 222.117,335.714 223.655 C 335.714 225.940,335.475 226.786,334.830 226.786 C 334.386 226.786,333.940 228.577,333.933 230.391 C 333.930 230.901,333.624 231.594,333.251 231.931 C 332.879 232.268,332.402 233.226,332.192 234.060 C 331.982 234.895,331.483 235.954,331.084 236.415 C 330.684 236.875,330.357 237.681,330.357 238.205 C 330.357 238.758,329.908 239.660,329.286 240.357 C 328.696 241.017,328.214 241.865,328.214 242.241 C 328.214 242.616,327.909 243.004,327.536 243.101 C 327.051 243.228,326.790 243.728,326.621 244.854 C 326.470 245.860,326.203 246.429,325.881 246.429 C 325.604 246.429,325.036 247.221,324.620 248.189 C 324.203 249.157,323.636 250.036,323.360 250.142 C 323.083 250.248,322.857 250.676,322.857 251.094 C 322.857 251.554,322.574 251.927,322.139 252.040 C 321.744 252.144,321.324 252.612,321.207 253.081 C 321.081 253.583,320.641 254.023,320.139 254.149 C 319.526 254.303,319.286 254.613,319.286 255.251 C 319.286 255.838,319.044 256.202,318.571 256.325 C 318.179 256.428,317.857 256.739,317.857 257.017 C 317.857 257.295,317.616 257.615,317.321 257.728 C 317.027 257.841,316.786 258.157,316.786 258.431 C 316.786 258.705,316.541 258.929,316.241 258.929 C 315.922 258.929,315.608 259.372,315.482 260.000 C 315.364 260.589,315.051 261.071,314.785 261.071 C 314.519 261.071,314.039 261.473,313.717 261.964 C 313.395 262.455,312.906 262.857,312.630 262.857 C 312.354 262.857,311.960 263.224,311.756 263.673 C 311.552 264.121,310.912 264.697,310.335 264.953 C 309.758 265.208,309.286 265.645,309.286 265.923 C 309.286 266.201,309.067 266.429,308.800 266.429 C 308.533 266.429,307.770 266.989,307.104 267.675 C 306.438 268.360,305.698 268.923,305.459 268.925 C 305.220 268.927,304.853 269.250,304.643 269.643 C 304.433 270.036,303.964 270.357,303.601 270.357 C 303.237 270.357,302.862 270.656,302.767 271.022 C 302.597 271.671,300.685 272.857,299.808 272.857 C 299.567 272.857,299.285 273.179,299.182 273.571 C 299.059 274.043,298.695 274.286,298.111 274.286 C 297.561 274.286,297.163 274.528,297.059 274.925 C 296.964 275.290,296.254 275.775,295.410 276.054 C 294.595 276.323,293.929 276.741,293.929 276.983 C 293.929 277.547,293.110 277.857,291.620 277.857 C 290.749 277.857,290.393 278.040,290.257 278.557 C 290.132 279.035,289.550 279.389,288.418 279.674 C 287.486 279.909,286.606 280.383,286.404 280.760 C 286.137 281.259,285.645 281.429,284.464 281.429 C 283.281 281.429,282.792 281.598,282.523 282.101 C 282.273 282.567,281.435 282.910,279.786 283.221 C 278.391 283.484,277.181 283.935,276.858 284.313 C 276.442 284.798,275.536 285.016,273.154 285.203 C 270.864 285.382,270.000 285.581,270.000 285.932 C 270.000 286.548,269.212 286.699,264.821 286.923 C 262.377 287.047,260.855 287.308,260.000 287.749 C 258.447 288.549,241.598 288.739,240.668 287.967 C 240.038 287.444,236.185 286.792,233.705 286.788 C 231.175 286.785,229.643 286.430,229.643 285.848 C 229.643 285.516,229.196 285.357,228.263 285.357 C 226.227 285.357,223.166 284.709,222.525 284.141 C 222.217 283.869,221.042 283.457,219.915 283.227 C 218.788 282.997,217.724 282.557,217.552 282.249 C 217.356 281.898,216.552 281.624,215.393 281.513 C 214.140 281.392,213.441 281.137,213.216 280.718 C 213.035 280.379,212.134 279.890,211.215 279.633 C 210.152 279.335,209.482 278.928,209.373 278.511 C 209.263 278.088,208.871 277.855,208.262 277.852 C 206.695 277.844,205.790 277.470,205.602 276.753 C 205.498 276.356,205.112 276.071,204.676 276.071 C 204.265 276.071,203.929 275.911,203.929 275.714 C 203.929 275.518,203.688 275.357,203.393 275.357 C 203.098 275.357,202.857 275.116,202.857 274.821 C 202.857 274.463,202.499 274.286,201.777 274.286 C 200.970 274.286,200.615 274.072,200.376 273.443 C 200.169 272.899,199.663 272.522,198.946 272.378 C 198.335 272.256,197.460 271.752,197.002 271.257 C 196.543 270.762,195.890 270.357,195.551 270.357 C 195.211 270.357,194.851 270.045,194.752 269.663 C 194.652 269.281,194.231 268.919,193.818 268.859 C 193.356 268.792,192.985 268.405,192.857 267.857 C 192.722 267.275,192.360 266.923,191.819 266.845 C 191.362 266.779,190.908 266.417,190.810 266.041 C 190.711 265.665,190.418 265.357,190.157 265.357 C 189.897 265.357,189.473 265.066,189.217 264.710 C 188.960 264.354,188.189 263.671,187.504 263.192 C 185.949 262.105,185.383 261.425,185.369 260.625 C 185.362 260.281,185.152 260.000,184.901 260.000 C 184.389 260.000,183.214 258.754,183.214 258.210 C 183.214 258.016,182.969 257.857,182.670 257.857 C 182.370 257.857,181.972 257.455,181.786 256.964 C 181.599 256.473,181.197 256.071,180.893 256.071 C 180.566 256.071,180.253 255.641,180.129 255.020 C 179.986 254.303,179.676 253.933,179.156 253.859 C 178.667 253.789,178.350 253.447,178.273 252.905 C 178.208 252.440,177.857 251.983,177.495 251.888 C 177.065 251.776,176.759 251.258,176.614 250.399 C 176.465 249.517,176.132 248.968,175.607 248.737 C 175.175 248.548,174.768 248.013,174.702 247.548 C 174.636 247.083,174.289 246.626,173.931 246.533 C 173.262 246.358,172.871 245.435,172.862 244.009 C 172.859 243.483,172.555 243.082,171.999 242.871 C 171.355 242.625,171.079 242.173,170.889 241.050 C 170.719 240.045,170.425 239.500,169.990 239.387 C 169.526 239.265,169.277 238.732,169.107 237.500 C 168.939 236.278,168.687 235.734,168.233 235.616 C 167.788 235.499,167.520 234.950,167.348 233.801 C 167.189 232.746,166.838 231.970,166.369 231.641 C 165.799 231.242,165.595 230.608,165.448 228.778 C 165.295 226.869,165.144 226.429,164.646 226.429 C 164.142 226.429,163.994 225.957,163.809 223.772 C 163.664 222.056,163.312 220.634,162.816 219.754 C 162.225 218.708,161.982 217.463,161.768 214.380 C 161.567 211.480,161.333 210.210,160.924 209.801 C 160.035 208.912,160.072 188.410,160.963 187.911 C 161.460 187.633,161.604 186.813,161.766 183.339 C 161.933 179.769,162.092 178.903,162.779 177.798 C 163.306 176.949,163.670 175.656,163.814 174.121 C 163.973 172.413,164.205 171.663,164.645 171.427 C 165.079 171.195,165.313 170.467,165.454 168.909 C 165.598 167.326,165.859 166.525,166.395 166.026 C 166.804 165.645,167.241 164.690,167.367 163.904 C 167.493 163.117,167.882 162.273,168.231 162.028 C 168.581 161.783,168.982 160.945,169.122 160.166 C 169.262 159.387,169.591 158.503,169.853 158.201 C 170.115 157.899,170.579 157.056,170.884 156.326 C 171.189 155.597,171.658 155.000,171.927 155.000 C 172.445 155.000,172.844 153.946,172.852 152.556 C 172.855 152.060,173.113 151.652,173.486 151.554 C 173.832 151.464,174.410 150.676,174.771 149.802 C 175.132 148.929,175.653 148.214,175.928 148.214 C 176.229 148.214,176.429 147.844,176.429 147.288 C 176.429 146.672,176.660 146.301,177.120 146.181 C 177.501 146.081,177.975 145.534,178.173 144.964 C 178.396 144.326,178.787 143.929,179.193 143.929 C 179.672 143.929,179.969 143.490,180.282 142.321 C 180.554 141.305,180.912 140.714,181.257 140.714 C 181.558 140.714,181.956 140.313,182.143 139.821 C 182.330 139.330,182.736 138.929,183.045 138.929 C 183.355 138.929,183.777 138.446,183.982 137.857 C 184.188 137.268,184.585 136.786,184.865 136.786 C 185.145 136.786,185.528 136.384,185.714 135.893 C 185.913 135.369,186.337 135.000,186.738 135.000 C 187.170 135.000,187.505 134.671,187.647 134.107 C 187.770 133.616,188.105 133.214,188.391 133.214 C 188.678 133.214,189.175 132.813,189.497 132.321 C 189.819 131.830,190.320 131.429,190.610 131.429 C 190.901 131.429,191.218 131.122,191.316 130.747 C 191.414 130.373,191.761 129.964,192.087 129.839 C 193.450 129.316,194.286 128.731,194.286 128.299 C 194.286 128.046,194.768 127.743,195.357 127.625 C 195.946 127.507,196.429 127.206,196.429 126.955 C 196.429 126.704,196.991 126.167,197.679 125.762 C 198.366 125.356,198.929 124.860,198.929 124.659 C 198.929 124.458,199.571 124.191,200.357 124.066 C 201.248 123.923,201.786 123.646,201.786 123.329 C 201.786 123.049,202.348 122.586,203.036 122.298 C 203.723 122.011,204.286 121.618,204.286 121.424 C 204.286 121.230,204.527 121.071,204.821 121.071 C 205.116 121.071,205.357 120.911,205.357 120.714 C 205.357 120.518,205.854 120.357,206.462 120.357 C 207.258 120.357,207.618 120.162,207.749 119.659 C 207.882 119.152,208.363 118.896,209.511 118.724 C 210.379 118.594,211.286 118.223,211.527 117.899 C 212.045 117.202,213.684 116.429,214.642 116.429 C 215.016 116.429,215.458 116.184,215.625 115.886 C 215.802 115.571,216.821 115.198,218.054 114.998 C 219.222 114.808,220.339 114.435,220.536 114.168 C 220.994 113.546,222.881 112.975,225.309 112.723 C 226.430 112.607,227.393 112.295,227.630 111.972 C 227.926 111.569,229.001 111.357,231.607 111.187 C 233.861 111.041,235.310 110.785,235.536 110.493 C 236.402 109.372,256.550 108.741,261.631 109.676 " stroke="none" fill="#5a32b2" fill-rule="evenodd"></path><path id="path1" d="M246.964 110.241 C 246.375 110.340,245.698 110.582,245.459 110.779 C 245.220 110.977,242.035 111.253,238.380 111.392 C 234.430 111.543,231.637 111.797,231.493 112.019 C 230.993 112.789,229.598 113.227,226.934 113.452 C 224.758 113.636,224.156 113.812,224.028 114.300 C 223.859 114.946,222.312 115.346,219.952 115.353 C 219.014 115.356,218.609 115.532,218.490 115.989 C 218.373 116.435,217.683 116.752,216.132 117.073 C 214.630 117.383,213.822 117.746,213.565 118.227 C 213.302 118.717,212.816 118.929,211.949 118.929 C 211.081 118.929,210.483 119.189,209.954 119.797 C 209.523 120.294,208.620 120.764,207.849 120.894 C 206.934 121.049,206.441 121.344,206.318 121.811 C 206.197 122.276,205.826 122.500,205.179 122.500 C 204.535 122.500,204.160 122.724,204.041 123.181 C 203.859 123.876,202.952 124.272,201.525 124.281 C 200.980 124.284,200.659 124.561,200.509 125.158 C 200.361 125.748,199.955 126.103,199.252 126.257 C 198.681 126.383,198.214 126.688,198.214 126.935 C 198.214 127.183,197.580 127.595,196.804 127.851 C 195.832 128.172,195.360 128.551,195.286 129.069 C 195.212 129.590,194.877 129.856,194.196 129.934 C 193.517 130.013,193.214 130.252,193.214 130.713 C 193.214 131.132,192.916 131.421,192.411 131.493 C 191.895 131.566,191.566 131.894,191.493 132.410 C 191.421 132.919,191.051 133.295,190.485 133.438 C 189.993 133.561,189.446 134.043,189.269 134.510 C 189.076 135.016,188.656 135.357,188.223 135.357 C 187.753 135.357,187.500 135.592,187.500 136.030 C 187.500 136.401,187.182 136.786,186.790 136.888 C 186.400 136.990,185.921 137.491,185.727 138.001 C 185.533 138.511,185.147 138.929,184.869 138.929 C 184.591 138.929,184.262 139.330,184.139 139.821 C 184.016 140.313,183.674 140.714,183.378 140.714 C 183.083 140.714,182.660 141.113,182.438 141.600 C 182.216 142.088,181.737 142.581,181.374 142.696 C 181.011 142.811,180.714 143.136,180.714 143.417 C 180.714 143.698,180.379 144.264,179.969 144.674 C 179.559 145.084,178.994 145.968,178.714 146.638 C 178.377 147.445,177.965 147.857,177.495 147.857 C 176.970 147.857,176.786 148.097,176.786 148.783 C 176.786 149.379,176.554 149.770,176.135 149.880 C 175.715 149.990,175.366 150.580,175.153 151.543 C 174.928 152.555,174.563 153.149,174.018 153.388 C 173.556 153.591,173.214 154.056,173.214 154.482 C 173.214 154.889,172.913 155.546,172.544 155.942 C 172.175 156.338,171.763 157.051,171.628 157.527 C 171.258 158.838,170.585 160.148,170.131 160.441 C 169.908 160.585,169.619 161.412,169.489 162.279 C 169.318 163.423,169.062 163.904,168.555 164.036 C 167.991 164.184,167.857 164.532,167.857 165.846 C 167.857 166.935,167.645 167.683,167.216 168.111 C 166.355 168.969,165.714 170.525,165.714 171.758 C 165.714 173.516,165.285 175.000,164.777 175.000 C 164.448 175.000,164.285 175.442,164.283 176.339 C 164.278 178.788,163.554 182.255,162.957 182.692 C 161.715 183.600,161.949 214.575,163.203 215.350 C 163.649 215.626,164.281 219.125,164.284 221.339 C 164.285 222.412,164.435 222.857,164.793 222.857 C 165.295 222.857,165.455 223.362,165.908 226.357 C 166.036 227.202,166.456 228.188,166.842 228.547 C 167.309 228.983,167.612 229.873,167.751 231.222 C 167.899 232.654,168.147 233.344,168.601 233.587 C 169.002 233.802,169.334 234.542,169.487 235.562 C 169.677 236.831,169.920 237.266,170.580 237.517 C 171.127 237.725,171.430 238.128,171.433 238.652 C 171.442 240.005,171.842 241.071,172.341 241.071 C 172.626 241.071,172.907 241.698,173.050 242.646 C 173.219 243.779,173.478 244.271,173.972 244.401 C 174.349 244.499,174.831 245.076,175.043 245.683 C 175.254 246.289,175.634 246.786,175.886 246.786 C 176.369 246.786,176.773 247.861,176.781 249.172 C 176.784 249.702,177.039 249.987,177.580 250.064 C 178.017 250.127,178.568 250.567,178.804 251.043 C 179.040 251.518,179.468 252.038,179.755 252.198 C 180.041 252.359,180.377 253.030,180.501 253.690 C 180.651 254.489,181.020 255.025,181.603 255.290 C 182.086 255.510,182.583 256.097,182.707 256.595 C 182.850 257.165,183.185 257.500,183.610 257.500 C 184.035 257.500,184.286 257.751,184.286 258.176 C 184.286 258.590,184.616 258.934,185.139 259.065 C 185.656 259.195,186.081 259.632,186.217 260.175 C 186.341 260.668,186.684 261.071,186.980 261.071 C 187.276 261.071,187.670 261.473,187.857 261.964 C 188.065 262.511,188.477 262.857,188.920 262.857 C 189.319 262.857,189.643 263.093,189.643 263.384 C 189.643 263.673,190.125 264.160,190.714 264.464 C 191.356 264.796,191.786 265.301,191.786 265.723 C 191.786 266.194,192.027 266.429,192.511 266.429 C 192.910 266.429,193.331 266.674,193.446 266.975 C 193.561 267.275,194.360 267.841,195.221 268.233 C 196.081 268.626,196.786 269.163,196.786 269.429 C 196.786 269.694,197.268 270.007,197.857 270.125 C 198.487 270.251,198.929 270.564,198.929 270.885 C 198.929 271.185,199.571 271.709,200.357 272.050 C 201.143 272.390,201.786 272.854,201.786 273.082 C 201.786 273.552,202.592 273.929,203.601 273.929 C 204.048 273.929,204.286 274.177,204.286 274.643 C 204.286 275.162,204.524 275.357,205.155 275.357 C 206.640 275.357,207.857 275.996,207.857 276.777 C 207.857 277.398,208.089 277.500,209.498 277.500 C 210.815 277.500,211.174 277.635,211.318 278.185 C 211.450 278.693,211.939 278.932,213.204 279.106 C 214.540 279.289,214.996 279.528,215.305 280.206 C 215.583 280.817,215.990 281.073,216.689 281.075 C 218.763 281.084,220.296 281.513,220.458 282.132 C 220.584 282.616,221.143 282.794,223.006 282.943 C 224.432 283.058,225.640 283.360,226.009 283.694 C 226.349 284.001,227.828 284.431,229.296 284.649 C 230.763 284.866,232.487 285.122,233.125 285.217 C 233.773 285.313,234.286 285.601,234.286 285.870 C 234.286 286.253,235.850 286.376,242.054 286.479 C 254.885 286.691,265.000 286.434,265.000 285.897 C 265.000 285.381,266.090 285.141,270.000 284.794 C 271.985 284.618,272.890 284.364,273.494 283.812 C 274.097 283.262,274.922 283.029,276.664 282.918 C 278.538 282.799,279.052 282.639,279.184 282.137 C 279.356 281.478,280.684 281.071,282.666 281.071 C 283.528 281.071,283.910 280.860,284.200 280.223 C 284.494 279.579,284.980 279.316,286.222 279.130 C 287.271 278.973,287.857 278.705,287.857 278.383 C 287.857 278.050,288.466 277.801,289.671 277.641 C 291.127 277.448,291.547 277.236,291.802 276.563 C 292.040 275.938,292.497 275.666,293.608 275.488 C 294.629 275.325,295.149 275.043,295.268 274.590 C 295.371 274.195,295.762 273.929,296.240 273.929 C 296.679 273.929,297.485 273.515,298.031 273.009 C 298.577 272.503,299.404 271.945,299.869 271.768 C 300.334 271.591,300.714 271.214,300.714 270.930 C 300.714 270.646,301.196 270.308,301.786 270.179 C 302.375 270.049,302.857 269.753,302.857 269.521 C 302.857 269.117,303.743 268.518,305.089 268.010 C 305.433 267.880,305.714 267.547,305.714 267.271 C 305.714 266.994,306.196 266.671,306.786 266.554 C 307.525 266.406,307.857 266.129,307.857 265.661 C 307.857 265.272,308.225 264.842,308.719 264.654 C 309.194 264.474,309.687 263.996,309.815 263.592 C 309.946 263.180,310.355 262.857,310.747 262.857 C 311.164 262.857,311.583 262.497,311.786 261.964 C 311.972 261.473,312.367 261.071,312.663 261.071 C 312.959 261.071,313.302 260.668,313.426 260.175 C 313.562 259.632,313.987 259.195,314.504 259.065 C 315.027 258.934,315.357 258.590,315.357 258.176 C 315.357 257.766,315.607 257.500,315.993 257.500 C 316.372 257.500,316.793 257.067,317.034 256.429 C 317.293 255.740,317.688 255.357,318.138 255.357 C 318.678 255.357,318.889 255.031,319.066 253.929 C 319.215 252.992,319.480 252.500,319.835 252.500 C 320.146 252.500,320.463 252.058,320.583 251.458 C 320.723 250.761,321.066 250.346,321.618 250.208 C 322.168 250.070,322.522 249.644,322.678 248.929 C 322.808 248.339,323.135 247.857,323.405 247.857 C 323.685 247.857,323.999 247.311,324.135 246.587 C 324.277 245.826,324.712 245.094,325.220 244.762 C 325.685 244.457,326.254 243.582,326.483 242.818 C 326.711 242.054,327.114 241.429,327.378 241.429 C 327.652 241.429,327.857 241.044,327.857 240.531 C 327.857 239.571,328.387 238.477,329.337 237.479 C 329.660 237.139,330.036 236.201,330.172 235.395 C 330.312 234.566,330.620 233.929,330.880 233.929 C 331.342 233.929,331.786 232.421,331.786 230.848 C 331.786 230.342,331.996 230.000,332.308 230.000 C 332.821 230.000,333.269 228.766,333.769 225.977 C 333.901 225.238,334.264 224.490,334.575 224.316 C 335.001 224.078,335.190 223.197,335.338 220.765 C 335.491 218.255,335.676 217.427,336.160 217.069 C 338.088 215.644,338.110 181.940,336.184 180.532 C 335.665 180.152,335.511 179.445,335.409 176.986 C 335.306 174.473,335.166 173.851,334.639 173.570 C 334.194 173.331,333.856 172.446,333.544 170.700 C 333.244 169.020,332.888 168.065,332.482 167.847 C 332.050 167.616,331.799 166.847,331.625 165.224 C 331.427 163.374,331.245 162.892,330.690 162.747 C 330.279 162.640,330.000 162.257,330.000 161.801 C 330.000 160.872,329.095 159.044,328.544 158.860 C 328.324 158.787,328.059 157.968,327.954 157.042 C 327.803 155.702,327.628 155.357,327.096 155.357 C 326.704 155.357,326.423 155.099,326.414 154.732 C 326.406 154.388,325.924 153.551,325.343 152.871 C 324.761 152.191,324.286 151.266,324.286 150.817 C 324.286 150.238,324.078 150.000,323.571 150.000 C 323.103 150.000,322.857 149.762,322.857 149.308 C 322.857 148.927,322.369 148.083,321.773 147.433 C 321.176 146.782,320.600 145.904,320.492 145.480 C 320.385 145.057,319.989 144.630,319.613 144.531 C 319.160 144.413,318.929 144.039,318.929 143.426 C 318.929 142.734,318.746 142.500,318.205 142.500 C 317.770 142.500,317.352 142.157,317.154 141.638 C 316.974 141.163,316.496 140.670,316.092 140.542 C 315.669 140.408,315.357 140.002,315.357 139.585 C 315.357 139.178,315.064 138.785,314.686 138.686 C 314.317 138.590,313.837 138.118,313.618 137.638 C 313.399 137.158,312.978 136.673,312.682 136.559 C 312.385 136.445,312.143 136.144,312.143 135.890 C 312.143 135.635,311.661 135.259,311.071 135.054 C 310.482 134.848,310.000 134.434,310.000 134.133 C 310.000 133.831,309.607 133.487,309.128 133.366 C 308.596 133.233,308.212 132.846,308.145 132.377 C 308.078 131.907,307.737 131.565,307.269 131.498 C 306.847 131.438,306.420 131.076,306.320 130.694 C 306.211 130.279,305.831 130.000,305.372 130.000 C 304.847 130.000,304.492 129.673,304.245 128.964 C 303.970 128.175,303.591 127.873,302.656 127.698 C 301.981 127.571,301.429 127.257,301.429 127.000 C 301.429 126.742,300.906 126.383,300.268 126.200 C 299.472 125.973,299.071 125.620,298.993 125.077 C 298.915 124.539,298.630 124.284,298.100 124.281 C 296.765 124.272,295.714 123.866,295.714 123.358 C 295.714 123.090,295.272 122.762,294.732 122.630 C 294.192 122.497,293.393 122.009,292.957 121.545 C 292.521 121.081,291.672 120.602,291.070 120.482 C 290.467 120.361,289.814 119.963,289.618 119.596 C 289.362 119.118,288.862 118.929,287.857 118.929 C 286.885 118.929,286.351 118.736,286.119 118.302 C 285.914 117.919,284.799 117.422,283.249 117.023 C 281.606 116.600,280.714 116.192,280.714 115.864 C 280.714 115.512,280.284 115.357,279.309 115.357 C 277.745 115.357,276.265 114.887,275.537 114.160 C 275.273 113.895,273.914 113.573,272.518 113.443 C 270.113 113.220,268.697 112.746,268.147 111.980 C 268.013 111.792,264.921 111.532,261.277 111.402 C 257.133 111.254,254.465 111.011,254.155 110.754 C 253.613 110.304,248.685 109.952,246.964 110.241 " stroke="none" fill="#b58efb" fill-rule="evenodd"></path><path id="path2" d="M49.167 20.238 C 49.036 20.369,48.929 20.851,48.929 21.310 C 48.929 21.781,48.714 22.143,48.434 22.143 C 48.162 22.143,47.676 22.545,47.354 23.036 C 47.033 23.527,46.452 23.929,46.063 23.929 C 45.610 23.929,45.357 24.169,45.357 24.602 C 45.357 24.972,44.955 25.538,44.464 25.860 C 43.973 26.182,43.571 26.672,43.571 26.949 C 43.571 27.233,43.143 27.502,42.589 27.566 L 41.607 27.679 41.607 33.750 L 41.607 39.821 71.607 39.821 L 101.607 39.821 101.705 33.661 L 101.803 27.500 100.764 27.500 C 99.664 27.500,99.301 26.871,99.291 24.952 C 99.287 24.315,99.056 23.952,98.571 23.825 C 98.144 23.713,97.857 23.338,97.857 22.891 C 97.857 22.231,97.646 22.143,96.071 22.143 C 94.325 22.143,94.286 22.119,94.286 21.071 L 94.286 20.000 71.845 20.000 C 59.503 20.000,49.298 20.107,49.167 20.238 M67.404 61.041 C 67.263 61.583,66.664 61.820,64.530 62.178 C 62.459 62.526,61.795 62.781,61.665 63.280 C 61.563 63.672,61.164 63.931,60.658 63.933 C 59.177 63.942,58.285 64.334,58.095 65.060 C 57.993 65.449,57.577 65.854,57.169 65.961 C 56.754 66.070,56.429 66.447,56.429 66.821 C 56.429 67.233,56.088 67.572,55.534 67.711 C 54.821 67.890,54.592 68.229,54.409 69.372 C 54.253 70.348,53.967 70.864,53.518 70.982 C 52.626 71.215,52.501 78.457,53.383 78.796 C 53.672 78.907,54.014 79.556,54.142 80.239 C 54.303 81.098,54.638 81.580,55.230 81.805 C 55.700 81.984,56.238 82.535,56.426 83.029 C 56.614 83.524,56.994 83.929,57.271 83.929 C 57.548 83.929,57.858 84.250,57.961 84.643 C 58.063 85.036,58.448 85.357,58.816 85.357 C 59.183 85.357,59.907 85.839,60.424 86.429 C 61.208 87.322,61.632 87.500,62.974 87.500 C 64.923 87.500,65.714 87.769,65.714 88.431 C 65.714 89.353,77.718 89.140,77.961 88.214 C 78.119 87.609,78.448 87.500,80.120 87.500 C 81.980 87.500,83.214 86.934,83.214 86.081 C 83.214 85.918,83.696 85.616,84.286 85.411 C 84.875 85.205,85.357 84.788,85.357 84.483 C 85.357 84.164,85.665 83.929,86.080 83.929 C 86.516 83.929,86.934 83.586,87.131 83.066 C 87.312 82.592,87.790 82.099,88.194 81.971 C 88.670 81.820,88.929 81.432,88.929 80.869 C 88.929 80.256,89.127 80.000,89.601 80.000 C 90.286 80.000,90.975 75.284,90.566 73.393 C 90.481 73.000,90.399 72.095,90.384 71.381 C 90.364 70.397,90.185 70.038,89.643 69.897 C 89.169 69.773,88.929 69.409,88.929 68.818 C 88.929 68.149,88.662 67.834,87.857 67.554 C 87.268 67.348,86.786 66.949,86.786 66.667 C 86.786 66.385,86.452 66.068,86.045 65.961 C 85.637 65.854,85.221 65.449,85.119 65.060 C 84.933 64.347,84.039 63.942,82.631 63.933 C 82.187 63.931,81.795 63.647,81.693 63.254 C 81.559 62.744,81.046 62.515,79.597 62.317 C 77.078 61.972,76.071 61.568,76.071 60.902 C 76.071 59.971,67.649 60.107,67.404 61.041 " stroke="none" fill="#8463c4" fill-rule="evenodd"></path><path id="path3" d="M241.095 109.884 C 240.026 109.971,238.984 110.265,238.774 110.540 C 238.564 110.814,237.670 111.111,236.786 111.199 C 235.902 111.288,237.396 111.309,240.107 111.245 C 243.539 111.165,245.209 110.985,245.608 110.654 C 246.420 109.980,253.238 109.993,254.054 110.670 C 254.479 111.023,256.032 111.190,259.555 111.260 C 262.255 111.314,263.741 111.282,262.858 111.190 C 261.974 111.097,260.971 110.768,260.629 110.459 C 259.998 109.887,246.097 109.478,241.095 109.884 M229.116 111.690 C 228.728 111.789,228.246 112.085,228.045 112.349 C 227.843 112.613,226.556 113.006,225.184 113.221 C 223.813 113.436,222.425 113.852,222.100 114.146 C 221.776 114.440,220.447 114.856,219.148 115.071 C 217.630 115.323,216.786 115.631,216.786 115.933 C 216.786 116.227,216.129 116.491,215.039 116.636 C 213.686 116.815,213.207 117.054,212.916 117.692 C 212.709 118.145,212.170 118.587,211.717 118.674 C 211.089 118.794,211.167 118.843,212.041 118.880 C 212.850 118.914,213.300 118.721,213.565 118.227 C 213.822 117.746,214.630 117.383,216.132 117.073 C 217.683 116.752,218.373 116.435,218.490 115.989 C 218.609 115.532,219.014 115.356,219.952 115.353 C 222.312 115.346,223.859 114.946,224.028 114.300 C 224.156 113.813,224.753 113.637,226.883 113.457 C 229.508 113.235,231.429 112.666,231.429 112.110 C 231.429 111.959,231.790 111.766,232.232 111.681 C 232.674 111.595,232.313 111.523,231.429 111.519 C 230.545 111.515,229.504 111.592,229.116 111.690 M267.321 111.661 C 267.714 111.775,268.116 111.970,268.214 112.095 C 268.737 112.758,270.251 113.233,272.518 113.443 C 273.914 113.573,275.273 113.895,275.537 114.160 C 276.265 114.887,277.745 115.357,279.309 115.357 C 280.284 115.357,280.714 115.512,280.714 115.864 C 280.714 116.192,281.606 116.600,283.249 117.023 C 284.799 117.422,285.914 117.919,286.119 118.302 C 286.346 118.727,286.880 118.928,287.780 118.926 L 289.107 118.924 288.037 118.366 C 287.448 118.059,286.712 117.578,286.401 117.297 C 286.091 117.016,285.528 116.784,285.150 116.781 C 283.930 116.772,282.857 116.357,282.857 115.892 C 282.857 115.608,282.094 115.348,280.804 115.192 C 279.610 115.049,278.226 114.600,277.500 114.121 C 276.726 113.610,275.435 113.209,274.107 113.068 C 272.801 112.929,271.801 112.622,271.545 112.282 C 271.265 111.909,270.374 111.678,268.866 111.588 C 267.624 111.514,266.929 111.547,267.321 111.661 M209.286 119.436 C 209.286 119.722,208.780 120.045,208.125 120.177 C 206.069 120.591,205.794 120.726,205.614 121.417 C 205.497 121.864,204.981 122.181,204.101 122.346 C 203.232 122.509,202.704 122.830,202.591 123.263 C 202.484 123.672,202.096 123.929,201.586 123.929 C 201.129 123.929,200.545 124.221,200.288 124.578 C 200.031 124.935,199.150 125.537,198.329 125.917 C 197.508 126.297,196.759 126.888,196.666 127.232 C 196.572 127.576,196.159 127.857,195.748 127.857 C 195.327 127.857,195.000 128.087,195.000 128.384 C 195.000 128.673,194.518 129.160,193.929 129.464 C 193.339 129.769,192.857 130.255,192.857 130.545 C 192.857 130.834,192.630 131.071,192.351 131.071 C 192.073 131.071,191.156 131.714,190.314 132.500 C 189.471 133.286,188.592 133.929,188.361 133.929 C 188.130 133.929,187.856 134.250,187.754 134.643 C 187.651 135.037,187.267 135.357,186.897 135.357 C 186.482 135.357,186.075 135.763,185.824 136.429 C 185.601 137.018,185.196 137.500,184.924 137.500 C 184.652 137.500,184.235 138.037,183.997 138.694 C 183.760 139.351,183.165 140.070,182.676 140.293 C 182.186 140.516,181.786 140.938,181.786 141.230 C 181.786 141.522,181.464 141.933,181.071 142.143 C 180.679 142.353,180.357 142.845,180.357 143.236 C 180.357 143.654,180.010 144.078,179.513 144.267 C 179.049 144.444,178.579 144.934,178.468 145.356 C 178.358 145.779,177.945 146.209,177.552 146.311 C 177.051 146.443,176.766 146.916,176.601 147.892 C 176.467 148.686,176.164 149.286,175.896 149.286 C 175.638 149.286,175.254 149.782,175.043 150.389 C 174.831 150.995,174.349 151.572,173.972 151.671 C 173.475 151.801,173.219 152.295,173.043 153.466 C 172.868 154.637,172.612 155.131,172.115 155.261 C 171.737 155.360,171.428 155.623,171.427 155.845 C 171.420 157.105,170.629 158.868,169.994 159.034 C 169.417 159.184,169.286 159.524,169.286 160.859 C 169.286 162.091,169.150 162.500,168.741 162.500 C 168.162 162.500,167.500 163.859,167.500 165.047 C 167.500 165.440,167.119 166.274,166.654 166.899 C 166.170 167.550,165.711 168.798,165.580 169.821 C 165.455 170.804,165.104 171.792,164.801 172.017 C 164.430 172.293,164.144 173.443,163.929 175.536 C 163.710 177.658,163.430 178.775,163.048 179.054 C 162.463 179.482,162.434 179.682,161.755 187.857 C 161.535 190.509,161.184 192.785,160.975 192.915 C 160.465 193.233,160.454 204.972,160.964 205.299 C 161.338 205.540,162.146 212.129,162.144 214.931 C 162.143 215.888,162.464 217.045,162.992 217.990 C 163.598 219.077,163.882 220.241,163.985 222.070 C 164.098 224.059,164.280 224.739,164.806 225.123 C 165.304 225.487,165.525 226.195,165.641 227.798 C 165.765 229.521,165.937 230.023,166.458 230.188 C 166.878 230.321,167.199 230.877,167.340 231.717 C 167.683 233.751,167.828 234.142,168.543 234.967 C 168.908 235.389,169.313 236.435,169.441 237.294 C 169.611 238.424,169.868 238.904,170.373 239.036 C 170.757 239.137,171.071 239.523,171.071 239.895 C 171.071 240.892,171.896 242.494,172.411 242.497 C 172.656 242.499,172.857 242.808,172.857 243.185 C 172.857 244.192,173.233 245.000,173.701 245.000 C 174.072 245.000,174.550 245.869,175.126 247.589 C 175.241 247.933,175.581 248.214,175.882 248.214 C 176.228 248.214,176.429 248.544,176.429 249.116 C 176.429 249.729,176.692 250.118,177.253 250.331 C 177.774 250.529,178.251 251.172,178.550 252.079 C 178.827 252.917,179.301 253.585,179.690 253.687 C 180.085 253.791,180.357 254.181,180.357 254.643 C 180.357 255.125,180.632 255.496,181.075 255.612 C 181.470 255.715,181.890 256.184,182.008 256.653 C 182.134 257.155,182.573 257.594,183.075 257.720 C 183.545 257.838,183.929 258.173,183.929 258.465 C 183.929 258.757,184.219 259.071,184.573 259.164 C 184.928 259.257,185.396 259.804,185.614 260.381 C 185.831 260.957,186.268 261.429,186.585 261.429 C 186.902 261.429,187.313 261.830,187.500 262.321 C 187.687 262.813,188.088 263.214,188.393 263.214 C 188.697 263.214,189.099 263.616,189.286 264.107 C 189.495 264.659,189.905 265.000,190.357 265.000 C 190.809 265.000,191.219 265.341,191.429 265.893 C 191.615 266.384,192.017 266.786,192.321 266.786 C 192.626 266.786,193.028 267.188,193.214 267.679 C 193.429 268.243,193.832 268.571,194.310 268.571 C 194.748 268.571,195.140 268.852,195.241 269.238 C 195.345 269.636,195.980 270.073,196.815 270.324 C 197.601 270.559,198.214 270.968,198.214 271.258 C 198.214 271.541,198.628 271.876,199.133 272.003 C 199.639 272.130,200.190 272.595,200.357 273.037 C 200.588 273.642,201.056 273.899,202.258 274.079 C 203.422 274.253,203.903 274.507,204.036 275.016 C 204.141 275.418,204.525 275.714,204.941 275.714 C 205.338 275.714,205.985 276.124,206.379 276.626 C 206.835 277.204,207.594 277.614,208.459 277.748 C 209.208 277.864,210.109 278.257,210.460 278.622 C 210.812 278.987,211.455 279.290,211.889 279.296 C 212.323 279.301,213.310 279.783,214.081 280.367 C 214.967 281.037,215.911 281.429,216.642 281.429 C 218.115 281.429,218.929 281.741,218.929 282.307 C 218.929 282.578,219.867 282.907,221.336 283.150 C 222.731 283.382,223.917 283.787,224.157 284.114 C 224.495 284.578,228.520 285.288,231.161 285.351 C 231.308 285.354,231.429 285.598,231.429 285.893 C 231.429 286.280,231.825 286.429,232.857 286.429 C 234.660 286.429,234.870 285.476,233.125 285.217 C 232.487 285.122,230.763 284.866,229.296 284.649 C 227.828 284.431,226.349 284.001,226.009 283.694 C 225.640 283.360,224.432 283.058,223.006 282.943 C 221.143 282.794,220.584 282.616,220.458 282.132 C 220.296 281.513,218.763 281.084,216.689 281.075 C 215.990 281.073,215.583 280.817,215.305 280.206 C 214.996 279.528,214.540 279.289,213.204 279.106 C 211.939 278.932,211.450 278.693,211.318 278.185 C 211.174 277.635,210.815 277.500,209.498 277.500 C 208.089 277.500,207.857 277.398,207.857 276.777 C 207.857 275.996,206.640 275.357,205.155 275.357 C 204.524 275.357,204.286 275.162,204.286 274.643 C 204.286 274.177,204.048 273.929,203.601 273.929 C 202.592 273.929,201.786 273.552,201.786 273.082 C 201.786 272.854,201.143 272.390,200.357 272.050 C 199.571 271.709,198.929 271.185,198.929 270.885 C 198.929 270.564,198.487 270.251,197.857 270.125 C 197.268 270.007,196.786 269.694,196.786 269.429 C 196.786 269.163,196.081 268.626,195.221 268.233 C 194.360 267.841,193.561 267.275,193.446 266.975 C 193.331 266.674,192.910 266.429,192.511 266.429 C 192.027 266.429,191.786 266.194,191.786 265.723 C 191.786 265.301,191.356 264.796,190.714 264.464 C 190.125 264.160,189.643 263.673,189.643 263.384 C 189.643 263.093,189.319 262.857,188.920 262.857 C 188.477 262.857,188.065 262.511,187.857 261.964 C 187.670 261.473,187.276 261.071,186.980 261.071 C 186.684 261.071,186.341 260.668,186.217 260.175 C 186.081 259.632,185.656 259.195,185.139 259.065 C 184.616 258.934,184.286 258.590,184.286 258.176 C 184.286 257.751,184.035 257.500,183.610 257.500 C 183.185 257.500,182.850 257.165,182.707 256.595 C 182.583 256.097,182.086 255.510,181.603 255.290 C 181.020 255.025,180.651 254.489,180.501 253.690 C 180.377 253.030,180.041 252.359,179.755 252.198 C 179.468 252.038,179.040 251.518,178.804 251.043 C 178.568 250.567,178.017 250.127,177.580 250.064 C 177.039 249.987,176.784 249.702,176.781 249.172 C 176.773 247.861,176.369 246.786,175.886 246.786 C 175.634 246.786,175.254 246.289,175.043 245.683 C 174.831 245.076,174.349 244.499,173.972 244.401 C 173.478 244.271,173.219 243.779,173.050 242.646 C 172.907 241.698,172.626 241.071,172.341 241.071 C 171.842 241.071,171.442 240.005,171.433 238.652 C 171.430 238.128,171.127 237.725,170.580 237.517 C 169.920 237.266,169.677 236.831,169.487 235.562 C 169.334 234.542,169.002 233.802,168.601 233.587 C 168.147 233.344,167.899 232.654,167.751 231.222 C 167.612 229.873,167.309 228.983,166.842 228.547 C 166.456 228.188,166.036 227.202,165.908 226.357 C 165.455 223.362,165.295 222.857,164.793 222.857 C 164.435 222.857,164.285 222.412,164.284 221.339 C 164.281 219.125,163.649 215.626,163.203 215.350 C 161.949 214.575,161.715 183.600,162.957 182.692 C 163.554 182.255,164.278 178.788,164.283 176.339 C 164.285 175.442,164.448 175.000,164.777 175.000 C 165.285 175.000,165.714 173.516,165.714 171.758 C 165.714 170.525,166.355 168.969,167.216 168.111 C 167.645 167.683,167.857 166.935,167.857 165.846 C 167.857 164.532,167.991 164.184,168.555 164.036 C 169.062 163.904,169.318 163.423,169.489 162.279 C 169.619 161.412,169.908 160.585,170.131 160.441 C 170.585 160.148,171.258 158.838,171.628 157.527 C 171.763 157.051,172.175 156.338,172.544 155.942 C 172.913 155.546,173.214 154.889,173.214 154.482 C 173.214 154.056,173.556 153.591,174.018 153.388 C 174.563 153.149,174.928 152.555,175.153 151.543 C 175.366 150.580,175.715 149.990,176.135 149.880 C 176.554 149.770,176.786 149.379,176.786 148.783 C 176.786 148.097,176.970 147.857,177.495 147.857 C 177.965 147.857,178.377 147.445,178.714 146.638 C 178.994 145.968,179.559 145.084,179.969 144.674 C 180.379 144.264,180.714 143.698,180.714 143.417 C 180.714 143.136,181.011 142.811,181.374 142.696 C 181.737 142.581,182.216 142.088,182.438 141.600 C 182.660 141.113,183.083 140.714,183.378 140.714 C 183.674 140.714,184.016 140.313,184.139 139.821 C 184.262 139.330,184.591 138.929,184.869 138.929 C 185.147 138.929,185.533 138.511,185.727 138.001 C 185.921 137.491,186.400 136.990,186.790 136.888 C 187.182 136.786,187.500 136.401,187.500 136.030 C 187.500 135.592,187.753 135.357,188.223 135.357 C 188.656 135.357,189.076 135.016,189.269 134.510 C 189.446 134.043,189.993 133.561,190.485 133.438 C 191.051 133.295,191.421 132.919,191.493 132.410 C 191.566 131.894,191.895 131.566,192.411 131.493 C 192.916 131.421,193.214 131.132,193.214 130.713 C 193.214 130.252,193.517 130.013,194.196 129.934 C 194.877 129.856,195.212 129.590,195.286 129.069 C 195.360 128.551,195.832 128.172,196.804 127.851 C 197.580 127.595,198.214 127.183,198.214 126.935 C 198.214 126.688,198.681 126.383,199.252 126.257 C 199.955 126.103,200.361 125.748,200.509 125.158 C 200.659 124.561,200.980 124.284,201.525 124.281 C 202.952 124.272,203.859 123.876,204.041 123.181 C 204.160 122.724,204.535 122.500,205.179 122.500 C 205.826 122.500,206.197 122.276,206.318 121.811 C 206.441 121.344,206.934 121.049,207.849 120.894 C 209.420 120.629,211.279 118.929,209.998 118.929 C 209.606 118.929,209.286 119.157,209.286 119.436 M289.618 119.596 C 289.814 119.963,290.467 120.361,291.070 120.482 C 291.672 120.602,292.521 121.081,292.957 121.545 C 293.393 122.009,294.192 122.497,294.732 122.630 C 295.272 122.762,295.714 123.090,295.714 123.358 C 295.714 123.866,296.765 124.272,298.100 124.281 C 298.630 124.284,298.915 124.539,298.993 125.077 C 299.071 125.620,299.472 125.973,300.268 126.200 C 300.906 126.383,301.429 126.750,301.429 127.016 C 301.429 127.282,301.576 127.500,301.757 127.500 C 301.937 127.500,302.327 127.593,302.623 127.707 C 303.031 127.863,303.114 127.728,302.963 127.153 C 302.840 126.681,302.384 126.316,301.762 126.192 C 301.211 126.081,300.674 125.768,300.570 125.496 C 300.465 125.223,300.151 125.000,299.871 125.000 C 299.591 125.000,299.270 124.759,299.157 124.464 C 299.043 124.170,298.563 123.929,298.089 123.929 C 297.527 123.929,297.161 123.680,297.039 123.214 C 296.936 122.819,296.552 122.500,296.181 122.500 C 295.811 122.500,294.952 122.024,294.272 121.443 C 293.592 120.862,292.674 120.380,292.232 120.372 C 291.790 120.364,291.429 120.135,291.429 119.863 C 291.429 119.591,291.067 119.272,290.625 119.154 C 289.374 118.818,289.234 118.880,289.618 119.596 M303.929 128.012 C 303.929 128.876,304.750 130.000,305.382 130.000 C 305.831 130.000,306.212 130.282,306.320 130.694 C 306.420 131.076,306.847 131.438,307.269 131.498 C 307.737 131.565,308.078 131.907,308.145 132.377 C 308.212 132.846,308.596 133.233,309.128 133.366 C 309.607 133.487,310.000 133.831,310.000 134.133 C 310.000 134.434,310.482 134.848,311.071 135.054 C 311.661 135.259,312.143 135.635,312.143 135.890 C 312.143 136.144,312.385 136.445,312.682 136.559 C 312.978 136.673,313.399 137.158,313.618 137.638 C 313.837 138.118,314.317 138.590,314.686 138.686 C 315.064 138.785,315.357 139.178,315.357 139.585 C 315.357 140.002,315.669 140.408,316.092 140.542 C 316.496 140.670,316.974 141.163,317.154 141.638 C 317.352 142.157,317.770 142.500,318.205 142.500 C 318.746 142.500,318.929 142.734,318.929 143.426 C 318.929 144.039,319.160 144.413,319.613 144.531 C 319.989 144.630,320.385 145.057,320.492 145.480 C 320.600 145.904,321.176 146.782,321.773 147.433 C 322.369 148.083,322.857 148.927,322.857 149.308 C 322.857 149.762,323.103 150.000,323.571 150.000 C 324.078 150.000,324.286 150.238,324.286 150.817 C 324.286 151.266,324.761 152.191,325.343 152.871 C 325.924 153.551,326.406 154.388,326.414 154.732 C 326.423 155.099,326.704 155.357,327.096 155.357 C 327.628 155.357,327.803 155.702,327.954 157.042 C 328.059 157.968,328.324 158.787,328.544 158.860 C 329.095 159.044,330.000 160.872,330.000 161.801 C 330.000 162.257,330.279 162.640,330.690 162.747 C 331.245 162.892,331.427 163.374,331.625 165.224 C 331.799 166.847,332.050 167.616,332.482 167.847 C 332.888 168.065,333.244 169.020,333.544 170.700 C 334.046 173.511,335.357 175.089,335.357 172.882 C 335.357 172.176,335.113 171.680,334.643 171.429 C 334.142 171.161,333.929 170.681,333.929 169.826 C 333.929 168.463,333.283 166.754,332.608 166.328 C 332.364 166.174,332.060 165.263,331.933 164.305 C 331.769 163.071,331.519 162.514,331.077 162.398 C 330.647 162.286,330.375 161.720,330.205 160.588 C 330.069 159.682,329.767 158.817,329.533 158.667 C 328.898 158.258,328.214 156.897,328.214 156.043 C 328.214 155.596,327.930 155.216,327.516 155.108 C 327.012 154.976,326.754 154.497,326.587 153.385 C 326.402 152.153,326.185 151.802,325.500 151.630 C 324.966 151.496,324.643 151.155,324.643 150.726 C 324.643 150.347,324.241 149.603,323.750 149.073 C 323.259 148.544,322.857 147.809,322.857 147.440 C 322.857 147.072,322.486 146.601,322.033 146.395 C 321.579 146.188,321.031 145.549,320.814 144.974 C 320.597 144.399,320.182 143.929,319.892 143.929 C 319.573 143.929,319.273 143.436,319.131 142.679 C 319.002 141.991,318.698 141.429,318.456 141.429 C 317.968 141.429,316.786 140.179,316.786 139.663 C 316.786 139.482,316.464 139.232,316.071 139.107 C 315.678 138.982,315.357 138.567,315.357 138.181 C 315.357 137.764,314.997 137.345,314.464 137.143 C 313.932 136.941,313.571 136.521,313.571 136.105 C 313.571 135.653,313.288 135.367,312.768 135.293 C 312.326 135.230,311.810 134.827,311.621 134.397 C 311.433 133.967,310.979 133.537,310.613 133.441 C 310.246 133.346,309.860 132.934,309.753 132.527 C 309.647 132.119,309.347 131.786,309.088 131.786 C 308.828 131.786,308.083 131.290,307.433 130.685 C 306.782 130.079,305.888 129.440,305.446 129.265 C 305.004 129.090,304.643 128.701,304.643 128.402 C 304.643 128.102,304.482 127.857,304.286 127.857 C 304.089 127.857,303.929 127.927,303.929 128.012 M335.481 177.632 C 335.552 179.488,335.728 180.199,336.204 180.546 C 338.183 181.993,338.061 215.365,336.070 217.220 C 335.479 217.771,335.368 218.296,335.420 220.282 C 335.467 222.115,335.515 222.310,335.621 221.110 C 335.711 220.102,336.013 219.336,336.469 218.967 C 337.121 218.438,337.801 213.537,337.849 209.018 C 337.854 208.545,338.078 208.214,338.393 208.214 C 338.856 208.214,338.929 206.885,338.929 198.393 C 338.929 189.901,338.856 188.571,338.393 188.571 C 338.098 188.571,337.852 188.451,337.846 188.304 C 337.640 183.260,337.115 179.165,336.629 178.808 C 336.318 178.580,335.911 177.670,335.725 176.786 C 335.404 175.258,335.392 175.301,335.481 177.632 M335.000 223.712 C 335.000 223.985,334.779 224.294,334.509 224.398 C 334.240 224.501,333.908 225.201,333.773 225.954 C 333.268 228.767,332.822 230.000,332.308 230.000 C 331.996 230.000,331.786 230.342,331.786 230.848 C 331.786 232.421,331.342 233.929,330.880 233.929 C 330.620 233.929,330.312 234.566,330.172 235.395 C 330.036 236.201,329.660 237.139,329.337 237.479 C 328.387 238.477,327.857 239.571,327.857 240.531 C 327.857 241.091,327.656 241.429,327.321 241.429 C 327.027 241.429,326.786 241.576,326.786 241.757 C 326.786 241.937,326.693 242.327,326.579 242.623 C 326.424 243.028,326.557 243.114,327.115 242.968 C 327.523 242.861,327.858 242.592,327.859 242.369 C 327.865 241.141,328.657 239.347,329.263 239.188 C 329.758 239.059,330.012 238.556,330.193 237.352 C 330.354 236.273,330.676 235.569,331.113 235.335 C 331.547 235.103,331.786 234.587,331.786 233.882 C 331.786 232.868,332.673 230.805,333.313 230.330 C 333.466 230.217,333.687 229.306,333.806 228.306 C 333.968 226.940,334.187 226.444,334.689 226.313 C 335.299 226.153,335.764 223.214,335.179 223.214 C 335.080 223.214,335.000 223.438,335.000 223.712 M325.305 244.592 C 324.786 245.111,324.251 246.058,324.116 246.696 C 323.982 247.335,323.656 247.857,323.393 247.857 C 323.129 247.857,322.808 248.339,322.678 248.929 C 322.522 249.644,322.168 250.070,321.618 250.208 C 321.066 250.346,320.723 250.761,320.583 251.458 C 320.463 252.058,320.146 252.500,319.835 252.500 C 319.480 252.500,319.215 252.992,319.066 253.929 C 318.889 255.031,318.678 255.357,318.138 255.357 C 317.688 255.357,317.293 255.740,317.034 256.429 C 316.793 257.067,316.372 257.500,315.993 257.500 C 315.607 257.500,315.357 257.766,315.357 258.176 C 315.357 258.590,315.027 258.934,314.504 259.065 C 313.987 259.195,313.562 259.632,313.426 260.175 C 313.302 260.668,312.959 261.071,312.663 261.071 C 312.367 261.071,311.972 261.473,311.786 261.964 C 311.583 262.497,311.164 262.857,310.747 262.857 C 310.355 262.857,309.946 263.180,309.815 263.592 C 309.687 263.996,309.194 264.474,308.719 264.654 C 308.225 264.842,307.857 265.272,307.857 265.661 C 307.857 266.129,307.525 266.406,306.786 266.554 C 306.196 266.671,305.714 266.975,305.714 267.228 C 305.714 267.664,304.861 268.256,303.482 268.776 C 303.138 268.906,302.857 269.221,302.857 269.478 C 302.857 269.734,302.375 270.049,301.786 270.179 C 301.196 270.308,300.714 270.646,300.714 270.930 C 300.714 271.214,300.334 271.591,299.869 271.768 C 299.404 271.945,298.577 272.503,298.031 273.009 C 297.485 273.515,296.679 273.929,296.240 273.929 C 295.762 273.929,295.371 274.195,295.268 274.590 C 295.149 275.043,294.629 275.325,293.608 275.488 C 292.497 275.666,292.040 275.938,291.802 276.563 C 291.547 277.236,291.127 277.448,289.671 277.641 C 288.466 277.801,287.857 278.050,287.857 278.383 C 287.857 278.705,287.271 278.973,286.222 279.130 C 284.980 279.316,284.494 279.579,284.200 280.223 C 283.910 280.860,283.528 281.071,282.666 281.071 C 280.684 281.071,279.356 281.478,279.184 282.137 C 279.052 282.639,278.538 282.799,276.664 282.918 C 274.922 283.029,274.097 283.262,273.494 283.812 C 272.890 284.364,271.985 284.618,270.000 284.794 C 266.024 285.146,265.000 285.380,265.000 285.933 C 265.000 286.282,265.474 286.429,266.607 286.429 C 267.798 286.429,268.214 286.290,268.214 285.893 C 268.214 285.598,268.335 285.354,268.482 285.351 C 271.123 285.288,275.147 284.578,275.486 284.114 C 275.726 283.787,276.912 283.382,278.307 283.150 C 279.875 282.891,280.714 282.586,280.714 282.275 C 280.714 281.792,281.227 281.622,283.712 281.287 C 284.477 281.184,285.441 280.787,285.855 280.405 C 286.269 280.023,287.290 279.509,288.125 279.263 C 288.960 279.017,289.643 278.615,289.643 278.370 C 289.643 278.108,290.350 277.827,291.354 277.689 C 292.639 277.512,293.150 277.259,293.407 276.673 C 293.596 276.244,294.130 275.839,294.595 275.773 C 295.060 275.708,295.518 275.353,295.614 274.986 C 295.738 274.514,296.248 274.249,297.359 274.083 C 298.361 273.933,298.929 273.665,298.929 273.343 C 298.929 273.066,299.290 272.701,299.732 272.531 C 300.174 272.361,300.985 271.804,301.533 271.293 C 302.082 270.781,302.910 270.268,303.374 270.151 C 303.838 270.035,304.295 269.645,304.389 269.286 C 304.483 268.926,304.940 268.578,305.405 268.512 C 305.963 268.434,306.289 268.119,306.364 267.589 C 306.440 267.058,306.723 266.786,307.201 266.786 C 307.625 266.786,308.002 266.489,308.112 266.068 C 308.215 265.673,308.684 265.253,309.153 265.135 C 309.655 265.009,310.094 264.570,310.220 264.068 C 310.338 263.598,310.658 263.214,310.932 263.214 C 311.579 263.214,315.714 259.079,315.714 258.432 C 315.714 258.158,316.116 257.834,316.607 257.710 C 317.188 257.565,317.500 257.236,317.500 256.770 C 317.500 256.335,317.850 255.921,318.393 255.714 C 318.939 255.506,319.286 255.094,319.286 254.652 C 319.286 254.242,319.522 253.929,319.830 253.929 C 320.130 253.929,320.539 253.498,320.739 252.971 C 320.939 252.445,321.497 251.619,321.980 251.137 C 322.462 250.655,322.857 249.945,322.857 249.561 C 322.857 249.161,323.164 248.781,323.575 248.674 C 323.970 248.571,324.393 248.089,324.515 247.604 C 324.637 247.119,325.117 246.311,325.582 245.809 C 326.048 245.307,326.429 244.598,326.429 244.234 C 326.429 243.437,326.477 243.422,325.305 244.592 M238.929 286.826 C 241.188 286.973,244.080 287.265,245.357 287.473 C 248.299 287.953,251.177 287.958,254.217 287.487 C 255.532 287.284,258.455 286.991,260.714 286.837 C 263.598 286.639,260.353 286.556,249.821 286.556 C 239.707 286.557,236.159 286.644,238.929 286.826 " stroke="none" fill="#8c64dc" fill-rule="evenodd"></path><path id="path4" d="M72.143 40.000 L 42.679 40.185 72.032 40.271 C 91.310 40.328,101.462 40.235,101.607 40.000 C 101.729 39.804,101.778 39.682,101.718 39.729 C 101.657 39.776,88.348 39.898,72.143 40.000 M70.637 60.264 C 71.675 60.336,73.282 60.335,74.208 60.262 C 75.135 60.189,74.286 60.130,72.321 60.130 C 70.357 60.131,69.599 60.191,70.637 60.264 M65.000 60.852 C 65.000 61.180,64.198 61.499,62.632 61.794 C 60.823 62.136,60.222 62.402,60.086 62.925 C 59.982 63.323,59.480 63.693,58.882 63.813 C 58.318 63.926,57.857 64.243,57.857 64.518 C 57.857 64.793,57.440 65.176,56.930 65.370 C 56.420 65.564,55.920 66.037,55.820 66.421 C 55.719 66.805,55.333 67.216,54.961 67.334 C 54.590 67.452,54.286 67.874,54.286 68.272 C 54.286 68.695,53.989 69.073,53.571 69.182 C 53.179 69.285,52.856 69.471,52.855 69.595 C 52.854 69.720,52.689 70.786,52.488 71.964 C 51.951 75.109,52.399 80.040,53.240 80.260 C 53.596 80.354,53.990 80.896,54.115 81.465 C 54.240 82.034,54.571 82.500,54.850 82.500 C 55.129 82.500,55.357 82.755,55.357 83.067 C 55.357 83.378,55.829 83.811,56.405 84.029 C 56.981 84.247,57.528 84.713,57.621 85.065 C 57.713 85.417,58.205 85.864,58.715 86.058 C 59.226 86.252,59.643 86.656,59.643 86.955 C 59.643 87.293,59.970 87.500,60.503 87.500 L 61.364 87.500 60.424 86.429 C 59.907 85.839,59.183 85.357,58.816 85.357 C 58.448 85.357,58.063 85.036,57.961 84.643 C 57.858 84.250,57.548 83.929,57.271 83.929 C 56.994 83.929,56.614 83.524,56.426 83.029 C 56.238 82.535,55.700 81.984,55.230 81.805 C 54.638 81.580,54.303 81.098,54.142 80.239 C 54.014 79.556,53.672 78.907,53.383 78.796 C 52.501 78.457,52.626 71.215,53.518 70.982 C 53.967 70.864,54.253 70.348,54.409 69.372 C 54.592 68.229,54.821 67.890,55.534 67.711 C 56.088 67.572,56.429 67.233,56.429 66.821 C 56.429 66.447,56.754 66.070,57.169 65.961 C 57.577 65.854,57.993 65.449,58.095 65.060 C 58.285 64.334,59.177 63.942,60.658 63.933 C 61.157 63.931,61.562 63.672,61.661 63.294 C 61.786 62.819,62.520 62.526,64.574 62.133 C 67.682 61.538,68.814 60.357,66.276 60.357 C 65.426 60.357,65.000 60.523,65.000 60.852 M76.071 60.902 C 76.071 61.568,77.078 61.972,79.597 62.317 C 81.046 62.515,81.559 62.744,81.693 63.254 C 81.795 63.647,82.187 63.931,82.631 63.933 C 84.039 63.942,84.933 64.347,85.119 65.060 C 85.221 65.449,85.637 65.854,86.045 65.961 C 86.452 66.068,86.786 66.385,86.786 66.667 C 86.786 66.949,87.268 67.348,87.857 67.554 C 88.662 67.834,88.929 68.149,88.929 68.818 C 88.929 69.409,89.169 69.773,89.643 69.897 C 90.185 70.038,90.364 70.397,90.384 71.381 C 90.399 72.095,90.481 73.000,90.566 73.393 C 90.975 75.284,90.286 80.000,89.601 80.000 C 89.127 80.000,88.929 80.256,88.929 80.869 C 88.929 81.432,88.670 81.820,88.194 81.971 C 87.790 82.099,87.312 82.592,87.131 83.066 C 86.934 83.586,86.516 83.929,86.080 83.929 C 85.665 83.929,85.357 84.164,85.357 84.483 C 85.357 84.788,84.875 85.205,84.286 85.411 C 83.696 85.616,83.214 85.918,83.214 86.081 C 83.214 86.244,82.962 86.630,82.653 86.939 C 82.143 87.449,82.158 87.500,82.819 87.500 C 83.219 87.500,83.700 87.214,83.887 86.864 C 84.074 86.514,84.791 86.007,85.479 85.736 C 86.168 85.466,86.806 84.962,86.896 84.617 C 86.986 84.272,87.440 83.935,87.905 83.870 C 88.575 83.775,88.814 83.443,89.062 82.262 C 89.254 81.347,89.607 80.714,89.979 80.616 C 90.859 80.386,91.727 74.714,91.133 73.072 C 90.903 72.435,90.714 71.307,90.714 70.566 C 90.714 69.519,90.555 69.177,90.000 69.032 C 89.607 68.929,89.286 68.682,89.286 68.482 C 89.286 67.955,86.688 65.358,86.161 65.357 C 85.915 65.357,85.714 65.108,85.714 64.803 C 85.714 64.498,85.229 64.079,84.635 63.872 C 84.042 63.666,83.404 63.211,83.217 62.862 C 82.992 62.442,82.091 62.079,80.546 61.788 C 79.008 61.497,78.214 61.179,78.214 60.852 C 78.214 60.540,77.818 60.357,77.143 60.357 C 76.421 60.357,76.071 60.535,76.071 60.902 M62.589 87.756 C 63.129 87.838,63.571 88.132,63.571 88.410 C 63.571 89.227,65.185 89.441,71.429 89.453 C 77.767 89.465,80.000 89.191,80.000 88.400 C 80.000 88.128,80.442 87.838,80.982 87.756 C 81.522 87.674,81.105 87.583,80.056 87.554 C 78.423 87.508,78.120 87.603,77.961 88.214 C 77.718 89.140,65.714 89.353,65.714 88.431 C 65.714 87.764,64.892 87.489,63.096 87.554 C 62.028 87.592,61.885 87.649,62.589 87.756 M237.679 109.698 C 236.696 109.881,235.720 110.257,235.509 110.533 C 235.275 110.840,234.232 111.094,232.831 111.184 C 231.568 111.266,232.304 111.271,234.464 111.195 C 237.666 111.083,238.478 110.943,238.855 110.439 C 239.557 109.499,259.565 109.496,260.604 110.436 C 261.134 110.916,262.137 111.081,265.195 111.191 C 267.347 111.269,268.063 111.268,266.786 111.190 C 265.380 111.104,264.317 110.854,264.091 110.555 C 263.191 109.369,242.971 108.712,237.679 109.698 M227.595 111.961 C 227.423 112.267,226.546 112.579,225.524 112.696 C 223.040 112.980,220.714 113.604,220.714 113.986 C 220.714 114.164,220.353 114.469,219.911 114.664 C 219.238 114.961,219.307 114.988,220.334 114.827 C 221.008 114.721,221.815 114.404,222.125 114.123 C 222.436 113.842,223.813 113.436,225.184 113.221 C 226.556 113.006,227.843 112.613,228.045 112.349 C 228.246 112.085,228.728 111.789,229.116 111.690 C 229.657 111.553,229.597 111.502,228.857 111.470 C 228.327 111.447,227.759 111.668,227.595 111.961 M270.527 111.660 C 270.915 111.775,271.397 112.091,271.598 112.362 C 271.801 112.635,272.958 112.958,274.196 113.085 C 275.710 113.242,276.795 113.587,277.569 114.158 C 278.197 114.621,279.121 114.978,279.623 114.951 C 280.463 114.907,280.472 114.890,279.732 114.748 C 279.290 114.663,278.929 114.371,278.929 114.099 C 278.929 113.520,276.811 112.862,274.936 112.859 C 274.214 112.858,273.372 112.606,273.065 112.300 C 272.758 111.993,271.903 111.677,271.164 111.596 C 270.426 111.516,270.139 111.545,270.527 111.660 M216.429 115.259 C 216.134 115.371,215.764 115.679,215.607 115.945 C 215.450 116.211,214.901 116.429,214.387 116.429 C 213.873 116.429,213.549 116.525,213.666 116.643 C 214.065 117.041,216.786 116.380,216.786 115.885 C 216.786 115.621,217.228 115.338,217.768 115.256 C 218.687 115.117,218.693 115.105,217.857 115.082 C 217.366 115.068,216.723 115.148,216.429 115.259 M281.875 115.248 C 282.415 115.333,282.857 115.615,282.857 115.874 C 282.857 116.348,283.910 116.772,285.113 116.781 C 285.470 116.784,286.289 117.188,286.933 117.679 C 288.396 118.795,288.612 118.799,288.093 117.700 C 287.772 117.020,287.309 116.777,285.983 116.595 C 285.048 116.466,284.151 116.124,283.988 115.833 C 283.826 115.543,283.063 115.258,282.293 115.200 C 281.523 115.141,281.335 115.163,281.875 115.248 M212.500 117.070 C 212.205 117.172,211.767 117.533,211.527 117.872 C 211.286 118.210,210.379 118.594,209.511 118.724 C 208.338 118.900,207.883 119.148,207.742 119.687 C 207.600 120.229,207.689 120.361,208.091 120.207 C 208.387 120.093,208.777 120.000,208.958 120.000 C 209.138 120.000,209.286 119.777,209.286 119.505 C 209.286 119.192,209.877 118.921,210.892 118.769 C 211.975 118.606,212.624 118.292,212.885 117.805 C 213.332 116.970,213.248 116.810,212.500 117.070 M290.089 119.001 C 290.830 119.198,291.429 119.580,291.429 119.857 C 291.429 120.132,291.710 120.344,292.054 120.329 C 292.427 120.312,292.499 120.228,292.232 120.121 C 291.987 120.022,291.786 119.732,291.786 119.476 C 291.786 118.983,290.648 118.560,289.464 118.613 C 289.071 118.631,289.353 118.805,290.089 119.001 M205.357 120.714 C 205.357 120.911,205.116 121.071,204.821 121.071 C 204.527 121.071,204.286 121.230,204.286 121.424 C 204.286 121.618,203.723 122.011,203.036 122.298 C 202.348 122.586,201.786 123.070,201.786 123.375 C 201.786 124.150,202.380 124.068,202.591 123.263 C 202.703 122.832,203.230 122.510,204.080 122.350 C 204.823 122.211,205.492 121.840,205.618 121.498 C 205.740 121.165,206.013 120.775,206.224 120.630 C 206.455 120.472,206.359 120.366,205.982 120.363 C 205.638 120.360,205.357 120.518,205.357 120.714 M294.272 121.443 C 294.952 122.024,295.811 122.500,296.181 122.500 C 296.552 122.500,296.936 122.819,297.039 123.214 C 297.258 124.051,297.857 124.176,297.857 123.385 C 297.857 123.086,297.415 122.649,296.875 122.414 C 296.335 122.178,295.539 121.619,295.106 121.171 C 294.674 120.723,294.031 120.364,293.678 120.372 C 293.187 120.383,293.328 120.636,294.272 121.443 M199.554 124.175 C 199.210 124.265,198.929 124.492,198.929 124.681 C 198.929 124.870,198.366 125.356,197.679 125.762 C 196.991 126.167,196.429 126.704,196.429 126.955 C 196.429 127.206,195.946 127.507,195.357 127.625 C 194.768 127.743,194.286 128.046,194.286 128.299 C 194.286 128.731,193.450 129.316,192.087 129.839 C 191.761 129.964,191.414 130.373,191.316 130.747 C 191.218 131.122,190.901 131.429,190.610 131.429 C 190.320 131.429,189.819 131.830,189.497 132.321 C 189.175 132.813,188.678 133.214,188.391 133.214 C 188.105 133.214,187.770 133.616,187.647 134.107 C 187.505 134.671,187.170 135.000,186.738 135.000 C 186.337 135.000,185.913 135.369,185.714 135.893 C 185.528 136.384,185.145 136.786,184.865 136.786 C 184.585 136.786,184.188 137.268,183.982 137.857 C 183.777 138.446,183.355 138.929,183.045 138.929 C 182.736 138.929,182.330 139.330,182.143 139.821 C 181.956 140.313,181.558 140.714,181.257 140.714 C 180.912 140.714,180.554 141.305,180.282 142.321 C 179.969 143.490,179.672 143.929,179.193 143.929 C 178.787 143.929,178.396 144.326,178.173 144.964 C 177.975 145.534,177.501 146.081,177.120 146.181 C 176.663 146.300,176.445 146.646,176.477 147.199 C 176.523 147.986,176.535 147.990,176.676 147.269 C 176.758 146.847,177.136 146.420,177.516 146.321 C 177.895 146.222,178.356 145.745,178.540 145.262 C 178.723 144.779,179.208 144.296,179.615 144.189 C 180.063 144.072,180.357 143.704,180.357 143.260 C 180.357 142.856,180.679 142.353,181.071 142.143 C 181.464 141.933,181.786 141.522,181.786 141.230 C 181.786 140.938,182.186 140.516,182.676 140.293 C 183.165 140.070,183.760 139.351,183.997 138.694 C 184.235 138.037,184.652 137.500,184.924 137.500 C 185.196 137.500,185.601 137.018,185.824 136.429 C 186.075 135.763,186.482 135.357,186.897 135.357 C 187.267 135.357,187.651 135.037,187.754 134.643 C 187.856 134.250,188.130 133.929,188.361 133.929 C 188.592 133.929,189.471 133.286,190.314 132.500 C 191.156 131.714,192.073 131.071,192.351 131.071 C 192.630 131.071,192.857 130.834,192.857 130.545 C 192.857 130.255,193.339 129.769,193.929 129.464 C 194.518 129.160,195.000 128.673,195.000 128.384 C 195.000 128.087,195.327 127.857,195.748 127.857 C 196.159 127.857,196.569 127.576,196.660 127.232 C 196.750 126.888,197.516 126.300,198.362 125.924 C 199.208 125.549,200.085 124.946,200.310 124.585 C 200.727 123.918,200.664 123.885,199.554 124.175 M299.157 124.464 C 299.270 124.759,299.578 125.000,299.842 125.000 C 300.106 125.000,300.450 125.217,300.607 125.482 C 300.893 125.963,302.857 126.624,302.857 126.238 C 302.857 126.126,302.391 125.872,301.821 125.673 C 301.252 125.475,300.704 125.001,300.605 124.620 C 300.500 124.218,300.116 123.929,299.688 123.929 C 299.180 123.929,299.015 124.095,299.157 124.464 M303.839 127.752 C 304.281 127.837,304.643 128.141,304.643 128.427 C 304.643 128.712,305.004 129.084,305.446 129.253 C 305.888 129.421,306.692 130.001,307.232 130.542 C 308.183 131.494,308.447 131.379,307.998 130.208 C 307.878 129.897,307.618 129.643,307.420 129.643 C 307.221 129.643,306.509 129.161,305.838 128.571 C 305.167 127.982,304.262 127.522,303.827 127.549 L 303.036 127.597 303.839 127.752 M308.981 131.668 C 309.305 131.754,309.654 132.149,309.758 132.546 C 309.862 132.943,310.246 133.346,310.613 133.441 C 310.979 133.537,311.433 133.967,311.621 134.397 C 311.810 134.827,312.326 135.230,312.768 135.293 C 313.288 135.367,313.571 135.653,313.571 136.105 C 313.571 136.521,313.932 136.941,314.464 137.143 C 314.997 137.345,315.357 137.764,315.357 138.181 C 315.357 138.567,315.678 138.982,316.071 139.107 C 316.464 139.232,316.786 139.482,316.786 139.663 C 316.786 140.187,317.972 141.429,318.472 141.429 C 318.723 141.429,318.929 141.696,318.929 142.024 C 318.929 142.351,319.024 142.524,319.140 142.408 C 319.510 142.038,318.901 140.714,318.360 140.714 C 318.074 140.714,317.687 140.313,317.500 139.821 C 317.313 139.330,316.907 138.929,316.597 138.929 C 316.288 138.929,315.866 138.446,315.661 137.857 C 315.455 137.268,315.058 136.786,314.778 136.786 C 314.497 136.786,314.120 136.396,313.939 135.920 C 313.748 135.419,313.264 135.006,312.787 134.938 C 312.252 134.862,311.924 134.541,311.850 134.018 C 311.777 133.505,311.489 133.214,311.053 133.214 C 310.623 133.214,310.288 132.884,310.147 132.321 C 309.990 131.696,309.693 131.441,309.158 131.470 C 308.611 131.500,308.561 131.556,308.981 131.668 M319.286 143.393 C 319.286 143.688,319.541 143.929,319.852 143.929 C 320.164 143.929,320.597 144.399,320.814 144.974 C 321.031 145.549,321.579 146.188,322.033 146.395 C 323.054 146.860,323.152 146.254,322.143 145.714 C 321.750 145.504,321.429 145.092,321.429 144.798 C 321.429 144.504,321.188 144.171,320.893 144.058 C 320.598 143.945,320.357 143.628,320.357 143.355 C 320.357 143.081,320.116 142.857,319.821 142.857 C 319.527 142.857,319.286 143.098,319.286 143.393 M322.857 147.838 C 322.857 147.988,323.259 148.544,323.750 149.073 C 324.241 149.603,324.643 150.333,324.643 150.694 C 324.643 151.327,325.316 151.798,326.190 151.775 C 326.419 151.769,326.339 151.607,326.011 151.416 C 325.683 151.225,325.145 150.360,324.814 149.495 C 324.304 148.158,322.857 146.934,322.857 147.838 M174.771 149.802 C 174.410 150.676,173.832 151.464,173.486 151.554 C 173.053 151.668,172.874 152.036,172.911 152.734 L 172.964 153.750 173.109 152.804 C 173.196 152.242,173.539 151.784,173.956 151.675 C 174.342 151.574,174.831 150.995,175.043 150.389 C 175.254 149.782,175.652 149.286,175.928 149.286 C 176.203 149.286,176.429 149.045,176.429 148.750 C 176.429 147.628,175.400 148.281,174.771 149.802 M326.655 153.348 C 326.727 153.913,326.786 154.497,326.786 154.646 C 326.786 154.795,327.107 155.001,327.500 155.103 C 327.929 155.216,328.214 155.591,328.214 156.043 C 328.214 156.849,328.844 158.149,329.523 158.743 C 329.752 158.943,330.029 159.429,330.137 159.821 C 330.246 160.214,330.265 159.893,330.179 159.107 C 330.080 158.194,329.762 157.502,329.297 157.189 C 328.898 156.919,328.571 156.406,328.571 156.049 C 328.571 155.692,328.411 155.300,328.214 155.179 C 328.018 155.057,327.857 154.646,327.857 154.265 C 327.857 153.883,327.627 153.571,327.346 153.571 C 327.065 153.571,326.766 153.290,326.680 152.946 C 326.595 152.603,326.584 152.783,326.655 153.348 M172.500 154.464 C 172.500 154.759,172.266 155.000,171.981 155.000 C 171.696 155.000,171.151 155.702,170.771 156.561 C 170.392 157.420,169.902 158.233,169.683 158.368 C 169.024 158.776,169.237 159.232,169.994 159.034 C 170.629 158.868,171.420 157.105,171.427 155.845 C 171.428 155.623,171.750 155.356,172.143 155.254 C 172.745 155.096,173.217 153.929,172.679 153.929 C 172.580 153.929,172.500 154.170,172.500 154.464 M168.929 160.986 C 168.929 161.331,168.607 161.815,168.214 162.060 C 167.821 162.305,167.510 162.866,167.523 163.307 L 167.545 164.107 167.868 163.304 C 168.046 162.862,168.438 162.500,168.738 162.500 C 169.108 162.500,169.286 162.153,169.286 161.429 C 169.286 160.839,169.205 160.357,169.107 160.357 C 169.009 160.357,168.929 160.640,168.929 160.986 M330.357 161.440 C 330.357 161.839,330.605 162.260,330.908 162.377 C 331.654 162.663,331.898 162.346,331.616 161.455 C 331.313 160.502,330.357 160.490,330.357 161.440 M331.988 164.286 C 332.086 165.170,332.365 166.054,332.608 166.250 C 332.851 166.446,333.236 167.009,333.465 167.500 L 333.880 168.393 333.904 167.494 C 333.918 166.999,333.546 166.031,333.077 165.342 C 332.609 164.653,332.132 163.772,332.018 163.384 C 331.903 162.996,331.890 163.402,331.988 164.286 M167.191 164.718 C 167.165 165.054,166.817 165.633,166.418 166.005 C 165.928 166.461,165.653 167.247,165.570 168.429 C 165.502 169.391,165.519 169.696,165.608 169.107 C 165.697 168.518,166.170 167.510,166.659 166.868 C 167.200 166.156,167.488 165.388,167.394 164.903 C 167.296 164.395,167.223 164.328,167.191 164.718 M333.929 170.152 C 333.929 170.681,334.221 171.203,334.643 171.429 C 335.166 171.709,335.357 172.176,335.357 173.178 C 335.357 175.293,336.025 178.352,336.576 178.764 C 336.850 178.968,337.148 179.531,337.238 180.014 C 337.347 180.595,337.419 180.394,337.451 179.423 C 337.485 178.412,337.264 177.654,336.744 176.992 C 336.221 176.327,335.895 175.197,335.684 173.321 C 335.367 170.496,333.929 167.899,333.929 170.152 M164.551 171.473 C 164.178 171.682,163.945 172.207,163.970 172.786 C 164.002 173.526,164.053 173.586,164.190 173.045 C 164.289 172.657,164.631 172.147,164.952 171.913 C 165.697 171.368,165.373 171.013,164.551 171.473 M163.560 175.804 C 163.554 176.246,163.153 177.250,162.669 178.036 C 161.883 179.312,161.795 179.825,161.841 182.857 L 161.893 186.250 162.141 182.893 C 162.328 180.356,162.536 179.429,162.992 179.095 C 163.573 178.670,164.297 175.000,163.800 175.000 C 163.674 175.000,163.566 175.362,163.560 175.804 M337.571 183.075 C 337.470 186.172,337.850 188.571,338.441 188.571 C 338.841 188.571,338.929 190.336,338.929 198.393 C 338.929 206.595,338.846 208.214,338.426 208.214 C 337.898 208.214,337.233 214.128,337.599 215.564 C 337.696 215.941,337.793 215.246,337.816 214.018 C 337.846 212.394,337.990 211.786,338.343 211.786 C 339.085 211.786,339.279 209.081,339.283 198.711 C 339.286 188.597,339.102 186.071,338.360 186.071 C 338.024 186.071,337.853 185.327,337.765 183.482 L 337.642 180.893 337.571 183.075 M161.429 187.045 C 161.429 187.450,161.188 187.873,160.893 187.986 C 160.450 188.156,160.369 188.985,160.426 192.757 C 160.464 195.267,160.552 196.317,160.622 195.089 C 160.691 193.862,160.887 192.857,161.056 192.857 C 161.416 192.857,161.980 186.861,161.651 186.532 C 161.529 186.409,161.429 186.641,161.429 187.045 M160.426 205.064 C 160.370 208.460,160.462 209.340,160.924 209.801 C 161.333 210.210,161.567 211.480,161.768 214.380 C 161.977 217.393,162.230 218.717,162.782 219.694 C 163.186 220.410,163.585 221.455,163.669 222.016 C 163.771 222.697,163.839 222.477,163.875 221.352 C 163.913 220.147,163.675 219.213,163.036 218.069 C 162.474 217.063,162.143 215.906,162.143 214.952 C 162.143 212.338,161.338 205.357,161.036 205.357 C 160.878 205.357,160.691 204.353,160.622 203.125 C 160.547 201.811,160.466 202.608,160.426 205.064 M337.184 217.586 C 337.161 218.145,336.836 218.757,336.429 219.011 C 335.980 219.292,335.714 219.844,335.714 220.498 C 335.714 221.513,335.732 221.523,336.422 220.899 C 337.177 220.216,337.676 218.355,337.396 217.268 C 337.280 216.817,337.213 216.918,337.184 217.586 M335.417 224.230 C 335.367 225.810,335.234 226.170,334.643 226.325 C 334.104 226.466,333.942 226.786,333.982 227.631 C 334.034 228.710,334.041 228.715,334.184 227.768 C 334.266 227.228,334.560 226.786,334.838 226.786 C 335.480 226.786,335.805 225.509,335.621 223.716 C 335.498 222.523,335.469 222.597,335.417 224.230 M163.957 225.089 C 163.934 226.168,164.058 226.429,164.594 226.429 C 165.157 226.429,165.289 226.792,165.448 228.778 C 165.595 230.608,165.799 231.242,166.369 231.641 C 166.838 231.970,167.189 232.746,167.348 233.801 C 167.520 234.950,167.788 235.499,168.233 235.616 C 168.688 235.735,168.939 236.279,169.109 237.514 C 169.272 238.697,169.530 239.280,169.925 239.356 C 170.274 239.424,170.653 240.086,170.884 241.035 C 171.229 242.453,172.857 243.947,172.857 242.846 C 172.857 242.656,172.656 242.499,172.411 242.497 C 171.896 242.494,171.071 240.892,171.071 239.895 C 171.071 239.523,170.757 239.137,170.373 239.036 C 169.868 238.904,169.611 238.424,169.441 237.294 C 169.313 236.435,168.908 235.389,168.543 234.967 C 167.828 234.142,167.683 233.751,167.340 231.717 C 167.199 230.877,166.878 230.321,166.458 230.188 C 165.937 230.023,165.765 229.521,165.641 227.798 C 165.541 226.416,165.285 225.473,164.942 225.220 C 164.645 225.001,164.308 224.580,164.193 224.286 C 164.079 223.991,163.972 224.353,163.957 225.089 M333.629 229.524 C 333.597 229.949,333.451 230.351,333.304 230.417 C 332.736 230.669,331.786 232.839,331.786 233.882 C 331.786 234.609,331.547 235.103,331.071 235.357 C 330.679 235.567,330.357 236.080,330.357 236.496 C 330.357 237.702,331.689 235.978,332.176 234.140 C 332.389 233.336,332.882 232.335,333.272 231.914 C 333.773 231.373,333.937 230.799,333.833 229.950 C 333.752 229.290,333.660 229.098,333.629 229.524 M330.000 238.248 C 330.000 238.693,329.713 239.070,329.291 239.181 C 328.657 239.347,327.865 241.109,327.859 242.369 C 327.858 242.592,327.536 242.858,327.143 242.961 C 326.674 243.083,326.429 243.448,326.429 244.022 C 326.429 244.502,326.048 245.307,325.582 245.809 C 325.117 246.311,324.637 247.119,324.515 247.604 C 324.393 248.089,323.970 248.571,323.575 248.674 C 323.179 248.778,322.857 249.161,322.857 249.530 C 322.857 249.897,322.375 250.726,321.786 251.371 C 321.196 252.016,320.714 252.780,320.714 253.069 C 320.714 253.358,320.353 253.740,319.911 253.917 C 319.462 254.098,319.344 254.248,319.643 254.258 C 320.418 254.282,320.941 253.858,321.214 252.985 C 321.345 252.564,321.768 252.137,322.155 252.036 C 322.575 251.926,322.857 251.548,322.857 251.094 C 322.857 250.676,323.083 250.248,323.360 250.142 C 323.636 250.036,324.203 249.157,324.620 248.189 C 325.036 247.221,325.604 246.429,325.881 246.429 C 326.203 246.429,326.470 245.860,326.621 244.854 C 326.790 243.728,327.051 243.228,327.536 243.101 C 327.909 243.004,328.214 242.616,328.214 242.241 C 328.214 241.865,328.696 241.017,329.286 240.357 C 330.192 239.342,330.767 237.500,330.179 237.500 C 330.080 237.500,330.000 237.836,330.000 238.248 M173.027 245.000 C 173.125 245.491,173.207 245.995,173.209 246.119 C 173.212 246.243,173.536 246.429,173.929 246.532 C 174.326 246.636,174.643 247.019,174.643 247.395 C 174.643 247.767,174.836 248.264,175.071 248.500 C 175.591 249.020,176.429 249.064,176.429 248.571 C 176.429 248.375,176.182 248.214,175.882 248.214 C 175.581 248.214,175.241 247.933,175.126 247.589 C 174.548 245.861,174.071 245.000,173.693 245.000 C 173.462 245.000,173.178 244.799,173.062 244.554 C 172.945 244.308,172.929 244.509,173.027 245.000 M176.698 250.893 C 176.785 251.348,177.148 251.797,177.505 251.891 C 177.862 251.984,178.208 252.440,178.273 252.905 C 178.350 253.447,178.667 253.789,179.156 253.859 C 179.676 253.933,179.986 254.303,180.129 255.020 C 180.253 255.641,180.566 256.071,180.893 256.071 C 181.197 256.071,181.599 256.473,181.786 256.964 C 181.972 257.455,182.330 257.855,182.580 257.852 C 182.898 257.848,182.915 257.767,182.637 257.584 C 182.418 257.440,182.132 256.977,182.001 256.556 C 181.869 256.136,181.446 255.709,181.060 255.608 C 180.631 255.496,180.357 255.119,180.357 254.643 C 180.357 254.188,180.086 253.791,179.708 253.692 C 179.349 253.598,178.820 252.869,178.526 252.062 C 177.920 250.401,176.421 249.442,176.698 250.893 M318.304 255.744 C 317.837 255.921,317.500 256.350,317.500 256.767 C 317.500 257.236,317.190 257.564,316.607 257.710 C 316.116 257.834,315.714 258.158,315.714 258.432 C 315.714 258.705,314.750 259.893,313.571 261.071 C 312.393 262.250,311.205 263.214,310.932 263.214 C 310.658 263.214,310.338 263.598,310.220 264.068 C 310.094 264.570,309.655 265.009,309.153 265.135 C 308.684 265.253,308.215 265.673,308.112 266.068 C 308.002 266.489,307.625 266.786,307.201 266.786 C 306.723 266.786,306.440 267.058,306.364 267.589 C 306.289 268.119,305.963 268.434,305.405 268.512 C 304.940 268.578,304.482 268.931,304.386 269.297 C 304.291 269.663,303.948 270.032,303.624 270.118 C 303.098 270.258,303.101 270.279,303.648 270.316 C 303.985 270.338,304.433 270.036,304.643 269.643 C 304.853 269.250,305.220 268.927,305.459 268.925 C 305.698 268.923,306.438 268.360,307.104 267.675 C 307.770 266.989,308.533 266.429,308.800 266.429 C 309.067 266.429,309.286 266.201,309.286 265.923 C 309.286 265.645,309.758 265.208,310.335 264.953 C 310.912 264.697,311.552 264.121,311.756 263.673 C 311.960 263.224,312.354 262.857,312.630 262.857 C 312.906 262.857,313.395 262.455,313.717 261.964 C 314.039 261.473,314.519 261.071,314.785 261.071 C 315.051 261.071,315.364 260.589,315.482 260.000 C 315.608 259.372,315.922 258.929,316.241 258.929 C 316.541 258.929,316.786 258.705,316.786 258.431 C 316.786 258.157,317.027 257.841,317.321 257.728 C 317.616 257.615,317.857 257.276,317.857 256.975 C 317.857 256.675,318.089 256.429,318.372 256.429 C 318.864 256.429,319.493 255.790,319.232 255.554 C 319.163 255.491,318.746 255.577,318.304 255.744 M183.214 258.210 C 183.214 258.754,184.389 260.000,184.901 260.000 C 185.152 260.000,185.357 259.839,185.357 259.643 C 185.357 259.446,185.101 259.286,184.788 259.286 C 184.475 259.286,184.135 258.964,184.032 258.571 C 183.842 257.844,183.214 257.567,183.214 258.210 M185.379 260.714 C 185.380 261.423,185.989 262.134,187.504 263.192 C 188.189 263.671,188.960 264.354,189.217 264.710 C 189.473 265.066,189.897 265.357,190.157 265.357 C 190.418 265.357,190.715 265.679,190.818 266.071 C 190.921 266.464,191.175 266.786,191.384 266.786 C 192.112 266.786,191.185 265.180,190.388 265.062 C 189.954 264.997,189.458 264.559,189.275 264.080 C 189.094 263.604,188.697 263.214,188.393 263.214 C 188.088 263.214,187.687 262.813,187.500 262.321 C 187.313 261.830,186.923 261.429,186.634 261.429 C 186.344 261.429,185.943 261.147,185.743 260.804 C 185.459 260.316,185.379 260.297,185.379 260.714 M192.823 267.768 C 192.985 268.379,193.365 268.791,193.827 268.859 C 194.236 268.919,194.652 269.281,194.752 269.663 C 194.857 270.067,195.241 270.357,195.668 270.357 C 196.073 270.357,196.564 270.657,196.759 271.022 C 197.079 271.620,197.812 272.017,199.732 272.634 C 200.819 272.983,200.407 272.480,199.286 272.089 C 198.696 271.884,198.214 271.497,198.214 271.229 C 198.214 270.962,197.585 270.554,196.815 270.324 C 195.980 270.073,195.345 269.636,195.241 269.238 C 195.140 268.852,194.748 268.571,194.310 268.571 C 193.832 268.571,193.429 268.243,193.214 267.679 C 192.759 266.481,192.497 266.541,192.823 267.768 M301.558 271.270 C 300.996 271.794,300.174 272.361,299.732 272.531 C 299.290 272.701,298.929 273.066,298.929 273.343 C 298.929 273.665,298.361 273.933,297.359 274.083 C 296.248 274.249,295.738 274.514,295.614 274.986 C 295.518 275.353,295.060 275.708,294.595 275.773 C 294.130 275.839,293.591 276.254,293.397 276.696 C 293.173 277.208,292.719 277.510,292.147 277.528 C 291.654 277.544,291.458 277.640,291.712 277.742 C 292.431 278.030,293.929 277.539,293.929 277.015 C 293.929 276.755,294.595 276.323,295.410 276.054 C 296.254 275.775,296.964 275.290,297.059 274.925 C 297.163 274.528,297.561 274.286,298.111 274.286 C 298.695 274.286,299.059 274.043,299.182 273.571 C 299.285 273.179,299.567 272.857,299.808 272.857 C 300.556 272.857,302.542 271.735,302.749 271.195 C 303.104 270.270,302.597 270.301,301.558 271.270 M200.662 274.019 C 200.842 274.199,201.369 274.286,201.834 274.213 C 202.549 274.101,202.498 274.051,201.507 273.886 C 200.797 273.768,200.464 273.821,200.662 274.019 M202.857 274.821 C 202.857 275.116,203.098 275.357,203.393 275.357 C 203.688 275.357,203.929 275.518,203.929 275.714 C 203.929 275.911,204.265 276.071,204.676 276.071 C 205.113 276.071,205.499 276.356,205.603 276.755 C 205.774 277.412,207.374 278.102,207.780 277.696 C 207.888 277.588,207.772 277.500,207.522 277.500 C 207.272 277.500,206.751 277.098,206.365 276.607 C 205.978 276.116,205.338 275.714,204.941 275.714 C 204.519 275.714,204.141 275.417,204.032 275.000 C 203.816 274.172,202.857 274.026,202.857 274.821 M209.349 278.452 C 209.416 278.800,210.180 279.285,211.192 279.624 C 212.143 279.942,213.075 280.478,213.264 280.815 C 213.452 281.153,214.029 281.429,214.546 281.429 C 215.455 281.429,215.441 281.395,214.081 280.367 C 213.310 279.783,212.315 279.301,211.872 279.296 C 211.428 279.290,210.789 278.964,210.453 278.571 C 209.709 277.702,209.192 277.646,209.349 278.452 M289.643 278.336 C 289.643 278.600,288.960 279.017,288.125 279.263 C 287.290 279.509,286.286 279.996,285.893 280.346 C 285.500 280.695,284.938 281.069,284.643 281.176 C 284.337 281.288,284.520 281.384,285.072 281.400 C 285.635 281.417,286.179 281.173,286.380 280.815 C 286.569 280.477,287.499 279.955,288.448 279.654 C 289.992 279.164,291.141 277.857,290.026 277.857 C 289.815 277.857,289.643 278.073,289.643 278.336 M216.786 281.688 C 217.080 281.799,217.444 282.097,217.593 282.349 C 217.743 282.602,218.788 282.997,219.915 283.227 C 221.042 283.457,222.226 283.877,222.545 284.160 C 222.864 284.442,223.748 284.742,224.509 284.825 C 225.270 284.909,225.575 284.884,225.187 284.769 C 224.800 284.654,224.316 284.332,224.113 284.054 C 223.910 283.777,222.660 283.370,221.336 283.150 C 219.867 282.907,218.929 282.578,218.929 282.307 C 218.929 281.783,218.110 281.417,217.024 281.457 C 216.495 281.476,216.419 281.549,216.786 281.688 M281.161 281.665 C 280.915 281.764,280.714 282.049,280.714 282.298 C 280.714 282.580,279.804 282.902,278.307 283.150 C 276.983 283.370,275.733 283.777,275.530 284.054 C 275.327 284.332,274.843 284.640,274.455 284.738 C 274.026 284.847,274.243 284.933,275.010 284.959 C 275.836 284.986,276.466 284.771,276.839 284.335 C 277.184 283.933,278.350 283.492,279.786 283.221 C 281.435 282.910,282.273 282.567,282.523 282.101 C 282.891 281.412,282.276 281.215,281.161 281.665 M227.768 285.263 C 229.065 285.354,229.643 285.547,229.643 285.890 C 229.643 286.468,232.061 286.920,233.938 286.693 C 234.886 286.578,234.737 286.529,233.304 286.486 C 231.982 286.445,231.429 286.284,231.429 285.940 C 231.429 285.384,229.497 284.975,227.321 285.070 C 226.133 285.122,226.208 285.154,227.768 285.263 M269.196 285.256 C 268.656 285.338,268.214 285.627,268.214 285.898 C 268.214 286.238,267.633 286.432,266.339 286.522 L 264.464 286.654 266.667 286.720 C 269.140 286.794,270.000 286.575,270.000 285.873 C 270.000 285.550,270.611 285.352,271.875 285.263 L 273.750 285.132 271.964 285.120 C 270.982 285.113,269.737 285.174,269.196 285.256 M238.184 287.190 C 239.248 287.367,240.358 287.710,240.650 287.952 C 241.561 288.708,258.397 288.564,260.000 287.786 C 260.688 287.453,261.732 287.102,262.321 287.008 C 262.911 286.913,261.757 286.911,259.757 287.004 C 257.758 287.096,255.186 287.325,254.043 287.513 C 251.161 287.985,248.684 287.938,244.107 287.325 C 241.946 287.036,239.295 286.815,238.214 286.834 L 236.250 286.869 238.184 287.190 " stroke="none" fill="#7c5cc8" fill-rule="evenodd"></path></g></svg>