<svg width="1028" height="570" xmlns="http://www.w3.org/2000/svg">

 <g>
  <title>background</title>
  <rect fill="none" id="canvas_background" height="572" width="1030" y="-1" x="-1"/>
 </g>
 <g>
  <title>Layer 1</title>
  <path stroke="null" fill="#0eed0e" id="svg_3" d="m1009.680299,49.696602l-33.539857,-31.317739c-10.555606,-9.780521 -24.599225,-15.168686 -39.608498,-15.168686c-15.000948,0 -29.061216,5.388164 -39.616822,15.168686l-382.599108,354.800572l-383.040313,-355.194263c-10.538957,-9.780521 -24.599225,-15.160966 -39.600173,-15.160966s-29.069541,5.380445 -39.616822,15.160966l-33.548181,31.124753c-21.843779,20.240353 -21.843779,53.210051 0,73.450403l456.055473,424.422136c10.538957,9.772802 24.582575,16.658536 39.716718,16.658536l0.174817,0c15.009273,0 29.052891,-6.893454 39.591849,-16.658536l455.630918,-423.271941c10.555606,-9.772802 16.349535,-23.189176 16.366185,-37.099594c0,-13.918137 -5.810578,-27.149245 -16.366185,-36.914328z"/>
 </g>
</svg>
