<?xml version="1.0" encoding="iso-8859-1"?>
<!-- Generator: Adobe Illustrator 19.0.0, SVG Export Plug-In . SVG Version: 6.00 Build 0)  -->
<svg version="1.1" id="Layer_1" xmlns="http://www.w3.org/2000/svg" xmlns:xlink="http://www.w3.org/1999/xlink" x="0px" y="0px"
	 viewBox="0 0 512 512" style="enable-background:new 0 0 512 512;" xml:space="preserve">
<g>
	<g>
		<path d="M498.347,117.973c-18.773-18.773-51.2-18.773-68.267,0L256,290.346L83.627,117.973
			c-8.534-8.534-22.186-13.653-34.133-13.653c-13.653,0-25.6,5.12-34.133,13.653C5.12,128.213,0,140.159,0,153.813
			s5.12,25.6,13.653,34.133l208.213,206.507c8.534,8.534,22.187,13.653,34.133,13.653c11.947,0,25.6-5.12,34.133-13.653
			L498.347,186.24C506.88,177.706,512,164.053,512,152.106C512,140.159,506.88,126.506,498.347,117.973z M472.747,162.346
			L266.24,370.56c-5.12,5.12-15.36,5.12-20.48,0L39.253,164.053c-3.413-3.413-5.12-6.827-5.12-10.24s1.706-6.827,5.12-10.24
			s6.827-5.12,10.24-5.12s6.827,1.707,10.24,5.12l184.32,184.32c3.413,3.413,6.827,5.12,11.946,5.12c5.12,0,8.534-1.707,11.947-5.12
			l184.32-186.027c5.12-5.12,15.36-5.12,20.48,0c3.413,3.413,5.12,6.827,5.12,10.24C477.867,157.226,476.16,160.639,472.747,162.346
			z"/>
	</g>
</g>
<g>
</g>
<g>
</g>
<g>
</g>
<g>
</g>
<g>
</g>
<g>
</g>
<g>
</g>
<g>
</g>
<g>
</g>
<g>
</g>
<g>
</g>
<g>
</g>
<g>
</g>
<g>
</g>
<g>
</g>
</svg>
