<svg width="500" height="500" xmlns="http://www.w3.org/2000/svg">

 <g>
  <title>background</title>
  <rect fill="none" id="canvas_background" height="502" width="502" y="-1" x="-1"/>
 </g>
 <g>
  <title>Layer 1</title>
  <path stroke="null" id="svg_2" fill="#09ef09" d="m436.977013,201.014365l-328.418912,-186.916001c-34.837217,-19.888471 -70.354658,1.86252 -70.354658,40.975434l0,390.205979c0,33.136655 21.572837,48.247359 41.623267,48.247359c9.442165,0 19.062484,-2.980032 28.61802,-8.794332l329.892732,-201.929529c16.584523,-10.187173 25.897122,-25.265485 25.605597,-41.380329c-0.275329,-16.13104 -10.089998,-30.86924 -26.966046,-40.40858zm-20.74685,45.72081l-329.876536,201.880942c-2.218828,1.360449 -3.967977,2.040674 -5.166468,2.380786c-0.323916,-1.198491 -0.647833,-3.044815 -0.647833,-5.717126l0,-390.189783c0,-4.016564 0.728812,-6.041042 0.728812,-6.543113c1.295666,0.080979 3.563081,0.745008 6.413546,2.36459l328.370324,186.916001c4.048956,2.316003 5.247447,4.324285 5.636147,3.886998c-0.210546,0.550658 -1.587191,2.607528 -5.457993,5.020705z"/>
 </g>
</svg>
