<?xml version="1.0" encoding="iso-8859-1"?>
<!-- Generator: Adobe Illustrator 19.0.0, SVG Export Plug-In . SVG Version: 6.00 Build 0)  -->
<svg version="1.1" id="Layer_1" xmlns="http://www.w3.org/2000/svg" xmlns:xlink="http://www.w3.org/1999/xlink" x="0px" y="0px"
	 viewBox="0 0 512 512" style="enable-background:new 0 0 512 512;" xml:space="preserve">
<g>
	<g>
		<path d="M394.8,222.851L186.065,14.116c-18.821-18.821-51.328-18.821-68.438,0c-18.82,18.821-18.82,49.617,0,68.438
			L290.433,257.07L117.628,429.875c-18.82,18.821-18.82,49.618,0,68.438C126.183,506.868,139.87,512,151.846,512
			c11.976,0,25.665-5.132,34.219-13.688L394.8,291.288c8.555-8.555,13.688-22.242,13.688-34.219
			C408.488,245.093,403.355,231.406,394.8,222.851z M370.847,267.335L163.823,474.36c-5.133,5.132-15.398,5.132-20.531,0
			c-5.133-5.132-5.133-15.399,0-20.531l184.782-184.782c6.844-6.844,6.844-17.109,0-23.953L141.581,60.312
			c-5.133-6.844-5.133-15.399,0-20.531c3.422-3.422,6.844-5.132,10.266-5.132c3.422,0,6.844,1.71,10.266,5.132l208.735,208.735
			c3.422,3.422,5.132,6.844,5.132,10.266C374.269,260.491,372.558,265.625,370.847,267.335z"/>
	</g>
</g>
<g>
</g>
<g>
</g>
<g>
</g>
<g>
</g>
<g>
</g>
<g>
</g>
<g>
</g>
<g>
</g>
<g>
</g>
<g>
</g>
<g>
</g>
<g>
</g>
<g>
</g>
<g>
</g>
<g>
</g>
</svg>
