<?xml version="1.0" encoding="iso-8859-1"?>
<!-- Generator: Adobe Illustrator 19.0.0, SVG Export Plug-In . SVG Version: 6.00 Build 0)  -->
<svg version="1.1" id="Layer_1" xmlns="http://www.w3.org/2000/svg" xmlns:xlink="http://www.w3.org/1999/xlink" x="0px" y="0px"
	 viewBox="0 0 512 512" style="enable-background:new 0 0 512 512;" xml:space="preserve">
<g>
	<g>
		<path d="M499.693,324.665L290.917,117.6c-18.825-18.824-51.338-18.824-68.451,0L13.69,324.665C5.133,334.932,0,346.912,0,360.602
			c0,13.69,5.133,25.67,13.69,34.226c8.557,8.556,22.246,13.69,34.226,13.69c11.979,0,25.67-5.133,34.226-13.69l174.55-174.55
			l172.839,172.84c18.825,18.824,51.338,18.824,68.451,0c8.557-8.557,13.69-22.246,13.69-34.226
			C513.383,346.912,508.25,333.221,499.693,324.665z M474.024,369.158c-5.133,5.133-15.401,5.133-20.535,0L268.671,184.34
			c-6.845-6.845-17.113-6.845-23.958,0L59.895,370.87c-5.134,5.133-15.402,5.133-20.535,0c-3.423-3.423-5.133-6.845-5.133-10.268
			c0-3.423,1.711-6.845,5.133-10.268l207.064-208.776c3.423-3.423,6.845-5.134,10.268-5.134c3.423,0,6.845,1.712,10.268,5.134
			l207.065,207.065c3.423,3.423,5.133,6.845,5.133,10.268C479.158,362.313,477.446,367.447,474.024,369.158z"/>
	</g>
</g>
<g>
</g>
<g>
</g>
<g>
</g>
<g>
</g>
<g>
</g>
<g>
</g>
<g>
</g>
<g>
</g>
<g>
</g>
<g>
</g>
<g>
</g>
<g>
</g>
<g>
</g>
<g>
</g>
<g>
</g>
</svg>
