<svg id="SvgjsSvg1001" width="288" height="288" xmlns="http://www.w3.org/2000/svg" version="1.1" xmlns:xlink="http://www.w3.org/1999/xlink" xmlns:svgjs="http://svgjs.com/svgjs"><defs id="SvgjsDefs1002"></defs><g id="SvgjsG1008" transform="matrix(0.9167,0,0,0.9167,11.995200000000011,11.980507850646973)"><svg xmlns="http://www.w3.org/2000/svg" width="288" height="288" viewBox="0 -87 472 472"><path d="m467.101562 26.527344c-3.039062-1.800782-6.796874-1.871094-9.898437-.179688l-108.296875 59.132813v-35.480469c-.03125-27.601562-22.398438-49.96875-50-50h-248.90625c-27.601562.03125-49.96875 22.398438-50 50v197.421875c.03125 27.601563 22.398438 49.96875 50 50h248.90625c27.601562-.03125 49.96875-22.398437 50-50v-34.835937l108.300781 59.132812c3.097657 1.691406 6.859375 1.625 9.894531-.175781 3.039063-1.804688 4.898438-5.074219 4.898438-8.601563v-227.816406c0-3.53125-1.863281-6.796875-4.898438-8.597656zm-138.203124 220.898437c-.015626 16.5625-13.4375 29.980469-30 30h-248.898438c-16.5625-.019531-29.980469-13.4375-30-30v-197.425781c.019531-16.558594 13.4375-29.980469 30-30h248.90625c16.558594.019531 29.980469 13.441406 30 30zm123.101562-1.335937-103.09375-56.289063v-81.535156l103.09375-56.285156zm0 0" fill="#21e82f" class="color000 svgShape"></path></svg></g></svg>
